<?xml version="1.0" standalone="no"?>
<!DOCTYPE svg PUBLIC "-//W3C//DTD SVG 20010904//EN"
 "http://www.w3.org/TR/2001/REC-SVG-20010904/DTD/svg10.dtd">
<svg version="1.0" xmlns="http://www.w3.org/2000/svg"
 width="608.000000pt" height="608.000000pt" viewBox="0 0 608.000000 608.000000"
 preserveAspectRatio="xMidYMid meet">
<metadata>
Created by potrace 1.14, written by Peter Selinger 2001-2017
</metadata>
<g transform="translate(0.000000,608.000000) scale(0.100000,-0.100000)"
fill="#000000" stroke="none">
<path d="M1537 5622 c-12 -15 -32 -47 -43 -72 -4 -8 -10 -17 -14 -20 -3 -3
-17 -26 -30 -52 -22 -41 -140 -242 -197 -337 -12 -20 -35 -58 -51 -86 -16 -27
-65 -112 -110 -189 -45 -76 -82 -140 -82 -141 0 -2 -24 -43 -54 -92 -29 -48
-73 -122 -97 -163 -24 -41 -48 -83 -54 -92 -5 -9 -23 -42 -40 -72 -16 -31 -33
-56 -37 -56 -4 0 -8 -4 -8 -9 0 -8 -179 -321 -190 -331 -3 -3 -12 -19 -21 -35
-15 -28 -121 -210 -176 -300 -13 -22 -26 -48 -30 -57 -3 -10 -9 -18 -14 -18
-5 0 -9 -4 -9 -10 0 -5 -18 -39 -40 -75 -22 -36 -40 -67 -40 -70 0 -3 -15 -28
-33 -57 -19 -29 -37 -60 -40 -68 -7 -14 -19 -35 -67 -115 l-18 -30 130 -220
c147 -250 177 -301 192 -332 6 -13 14 -23 19 -23 4 0 7 -6 7 -14 0 -7 7 -19
15 -26 8 -7 12 -16 9 -21 -3 -5 -1 -9 4 -9 5 0 12 -8 15 -17 4 -10 17 -36 31
-58 14 -22 37 -60 51 -85 14 -25 62 -106 106 -180 44 -74 83 -143 86 -153 3
-9 9 -17 14 -17 5 0 9 -4 9 -9 0 -6 32 -62 70 -127 39 -64 70 -118 70 -119 0
-2 27 -47 60 -102 33 -54 60 -104 60 -110 0 -7 4 -13 8 -13 5 0 16 -15 25 -32
9 -18 29 -53 43 -78 15 -25 35 -58 44 -75 9 -16 31 -54 49 -83 17 -29 31 -55
31 -58 0 -3 5 -10 10 -17 12 -13 150 -247 150 -253 0 -2 15 -27 33 -56 19 -29
45 -73 59 -98 65 -116 100 -170 111 -171 7 -1 680 -2 1496 -2 977 -1 1488 1
1496 8 7 6 24 30 37 55 36 65 128 221 148 250 9 14 20 35 24 48 4 12 12 22 17
22 5 0 9 4 9 10 0 5 18 39 40 75 22 36 40 67 40 70 0 3 16 29 35 59 19 30 35
58 35 61 0 3 8 18 18 33 18 26 69 111 110 182 11 19 44 76 73 125 29 50 66
114 83 143 17 30 36 61 41 70 6 9 21 35 33 57 12 22 31 54 41 70 37 61 125
211 135 232 6 13 14 23 19 23 4 0 7 5 7 10 0 6 34 67 75 136 41 69 75 127 75
129 0 2 29 51 65 110 36 58 65 108 65 111 0 2 11 21 24 42 12 20 23 41 24 46
0 5 4 12 9 15 5 3 56 88 115 188 l106 182 -19 25 c-10 13 -19 29 -19 34 0 5
-7 15 -15 22 -8 6 -13 15 -12 18 1 4 -14 32 -33 62 -19 30 -40 66 -47 80 -7
14 -24 43 -37 65 -14 22 -32 52 -41 68 -8 15 -81 138 -160 273 -80 135 -145
250 -145 255 0 5 -4 9 -9 9 -5 0 -11 8 -14 18 -7 19 -39 76 -80 139 -15 24
-27 45 -27 48 0 3 -22 42 -50 86 -27 44 -50 82 -50 84 0 2 -18 33 -41 70 -22
37 -49 83 -60 101 -10 19 -28 49 -38 68 -11 18 -25 44 -33 57 -7 13 -15 26
-19 29 -4 4 -36 60 -83 145 -7 11 -24 39 -39 62 -15 24 -27 47 -27 52 0 5 -3
11 -7 13 -5 2 -17 21 -28 43 -11 22 -26 46 -32 53 -7 7 -13 20 -13 28 0 8 -4
14 -10 14 -5 0 -10 4 -10 9 0 5 -21 45 -47 88 -27 43 -55 91 -63 108 -8 16
-22 38 -30 48 -8 10 -15 21 -15 25 -1 4 -12 25 -26 47 -14 22 -34 56 -44 75
-10 19 -21 37 -24 40 -4 3 -17 25 -30 50 l-24 46 -1499 0 c-1269 0 -1501 -2
-1511 -14z"/>
</g>
</svg>
