<?xml version="1.0" encoding="UTF-8"?>
<svg width="142px" height="43px" viewBox="0 0 142 43" version="1.1" xmlns="http://www.w3.org/2000/svg" xmlns:xlink="http://www.w3.org/1999/xlink">
    <!-- Generator: Sketch 55.2 (78181) - https://sketchapp.com -->
    <title>button-chrome-web-store</title>
    <desc>Created with Sketch.</desc>
    <g id="Page-1" stroke="none" stroke-width="1" fill="none" fill-rule="evenodd">
        <g id="PAges" transform="translate(-432.000000, -1817.000000)">
            <g id="button-chrome-web-store" transform="translate(432.155887, 1817.781924)">
                <path d="M136.359867,41.9568823 L5.24461028,41.9568823 C2.30762852,41.9568823 0,39.6492537 0,36.712272 L0,5.24461028 C0,2.30762852 2.30762852,0 5.24461028,0 L136.359867,0 C139.296849,0 141.604478,2.30762852 141.604478,5.24461028 L141.604478,36.712272 C141.604478,39.5443615 139.296849,41.9568823 136.359867,41.9568823 Z" id="Path" fill="#000000" fill-rule="nonzero"></path>
                <g id="Google_Chrome_Web_Store_icon_2015" transform="translate(6.293532, 6.293532)" fill-rule="nonzero">
                    <path d="M21.2402828,6.40536132 L13.3741451,6.40536132 C12.5046234,6.40536132 11.7999843,5.6883787 11.7999843,4.80362531 C11.7999843,3.92045466 12.5046234,3.20347203 13.3741451,3.20347203 L21.2402828,3.20347203 C22.1098044,3.20347203 22.8144436,3.92045466 22.8144436,4.80362531 C22.8144436,5.6883787 22.1098044,6.40536132 21.2402828,6.40536132 Z M0,0 L0,28.0177184 C0,29.3377261 1.06240301,30.4187396 2.35968575,30.4187396 L32.2547421,30.4187396 C33.5520248,30.4187396 34.6144279,29.3377261 34.6144279,28.0177184 L34.6144279,0 L0,0 Z" id="Shape" fill="#EEEEEE"></path>
                    <path d="M17.1259834,12.7065621 C11.8546218,12.7065621 7.22197757,15.5036407 4.56453994,19.7287098 L4.56453994,30.4187396 L11.8452974,30.4187396 L17.1259834,21.0484469 L30.4302663,21.0484469 C27.9577614,16.0974428 22.9272786,12.7065621 17.1259834,12.7065621 Z" id="Path" fill="#DB4437"></path>
                    <path d="M4.62749332,19.6374142 C3.14403183,22.0436159 2.28226997,24.9076062 2.28226997,27.9820187 C2.28226997,28.8108572 2.34536325,29.6252392 2.46693322,30.4187396 L10.6505932,30.4187396 L4.62749332,19.6374142 Z" id="Path" fill="#0F9D58"></path>
                    <path d="M32.3321579,28.0370197 C32.3321579,25.5673787 31.7485865,23.2358994 30.714214,21.1776035 L17.4974031,21.1776035 L22.7433701,30.4187396 L32.1468971,30.4187396 C32.2688605,29.6431499 32.3321579,28.8471499 32.3321579,28.0370197 Z" id="Path" fill="#FFCD40"></path>
                    <path d="M17.1170248,21.1776035 C13.3346639,21.1776035 10.2702149,24.2485621 10.2702149,28.0370197 C10.2702149,28.8754102 10.4206942,29.6776903 10.6950055,30.4187396 L12.180989,30.4187396 C11.8330055,29.6981006 11.6386363,28.8895404 11.6386363,28.0370197 C11.6386363,25.0053116 14.0917631,22.5498008 17.1170248,22.5498008 C20.1422865,22.5498008 22.5954132,25.0053116 22.5954132,28.0370197 C22.5954132,28.8911104 22.401044,29.6981006 22.0530606,30.4187396 L23.539044,30.4187396 C23.8133553,29.6761203 23.9638347,28.8738402 23.9638347,28.0370197 C23.9638347,24.2485621 20.8978181,21.1776035 17.1170248,21.1776035 Z" id="Path" fill="#F1F1F1"></path>
                    <path d="M17.3072139,22.3327456 C14.2614664,22.3327456 11.7917282,24.8559887 11.7917282,27.9713228 C11.7917282,28.8489726 11.9874135,29.6782226 12.3377534,30.4187396 L22.2766745,30.4187396 C22.6270144,29.6782226 22.8226997,28.8473593 22.8226997,27.9713228 C22.8211216,24.8559887 20.3529614,22.3327456 17.3072139,22.3327456 Z" id="Path" fill="#4285F4"></path>
                    <path d="M0,0 L0,15.4018935 L34.6144279,15.4018935 L34.6144279,0 L0,0 Z M21.2402828,6.48610436 L13.3741451,6.48610436 C12.5046234,6.48610436 11.7999843,5.76008379 11.7999843,4.8641776 C11.7999843,3.96987411 12.5046234,3.24385353 13.3741451,3.24385353 L21.2418383,3.24385353 C22.1113599,3.24385353 22.8159991,3.96987411 22.8159991,4.8641776 C22.8144436,5.76008379 22.1098044,6.48610436 21.2402828,6.48610436 Z" id="Shape" fill="#212121" opacity="0.05"></path>
                    <rect id="Rectangle" fill="#212121" opacity="0.02" x="0" y="15.0168461" width="34.6144279" height="1"></rect>
                    <rect id="Rectangle" fill="#FFFFFF" opacity="0.05" x="0" y="15.0168461" width="34.6144279" height="1"></rect>
                    <path d="M0,0 L0,0.199213324 L34.6144279,0.199213324 L34.6144279,0 L0,0 Z M21.2402828,6.34816002 L13.3741451,6.34816002 C12.5388443,6.34816002 11.8559821,5.6893443 11.8062062,4.86111883 C11.8015398,4.89405961 11.7999843,4.9270004 11.7999843,4.95994118 C11.7999843,5.83679353 12.5046234,6.54580473 13.3741451,6.54580473 L21.2402828,6.54580473 C22.1098044,6.54580473 22.8144436,5.83679353 22.8144436,4.95994118 C22.8144436,4.9270004 22.8128881,4.89405961 22.8082216,4.86111883 C22.7584458,5.68777569 22.077139,6.34816002 21.2402828,6.34816002 Z" id="Shape" fill="#212121" opacity="0.02"></path>
                    <path d="M32.2547421,30.2183141 L2.35968575,30.2183141 C1.06240301,30.2183141 0,29.1420131 0,27.8242545 L0,28.0246801 C0,29.3408605 1.06240301,30.4187396 2.35968575,30.4187396 L32.2547421,30.4187396 C33.5520248,30.4187396 34.6144279,29.3408605 34.6144279,28.0246801 L34.6144279,27.8242545 C34.6144279,29.1420131 33.5520248,30.2183141 32.2547421,30.2183141 Z M13.3741451,3.28080425 L21.2402828,3.28080425 C22.0755835,3.28080425 22.7584458,3.94362891 22.8082216,4.7768942 C22.8097771,4.74375296 22.8144436,4.71061173 22.8144436,4.6774705 C22.8144436,3.79528244 22.1098044,3.0803787 21.2402828,3.0803787 L13.3741451,3.0803787 C12.5046234,3.0803787 11.7999843,3.79528244 11.7999843,4.6774705 C11.7999843,4.71061173 11.8015398,4.74375296 11.8062062,4.7768942 C11.8559821,3.94362891 12.5372888,3.28080425 13.3741451,3.28080425 Z" id="Shape" fill="#231F20" opacity="0.1"></path>
                </g>
                <text id="Chrome-Web-Store" font-family="Golos UI-Bold, Golos UI" font-size="14" font-weight="bold" letter-spacing="1.12" fill="#FFFFFF">
                    <tspan x="48.2504146" y="17.1956882">Chrome </tspan>
                    <tspan x="48.2504146" y="33.1956882">Web Store</tspan>
                </text>
            </g>
        </g>
    </g>
</svg>