<?xml version="1.0" encoding="UTF-8"?>
<svg width="130px" height="43px" viewBox="0 0 130 43" version="1.1" xmlns="http://www.w3.org/2000/svg" xmlns:xlink="http://www.w3.org/1999/xlink">
    <!-- Generator: Sketch 55.2 (78181) - https://sketchapp.com -->
    <title>button-app-store</title>
    <desc>Created with Sketch.</desc>
    <g id="Page-1" stroke="none" stroke-width="1" fill="none" fill-rule="evenodd">
        <g id="PAges" transform="translate(-133.000000, -1817.000000)" fill-rule="nonzero">
            <g id="button-app-store" transform="translate(133.213101, 1817.781924)">
                <g id="Group">
                    <g fill="#000000" id="Path">
                        <path d="M8.30518562,41.9546885 C7.97099596,41.9546885 7.64487915,41.9504108 7.31331097,41.9429522 C6.62644062,41.9340027 5.94117566,41.8742069 5.26313616,41.7640552 C4.63089853,41.6551684 4.01843021,41.4526192 3.44593326,41.1630886 C2.87868581,40.8759569 2.36131052,40.4994618 1.91362738,40.0480262 C1.45946413,39.6019083 1.08135246,39.0844876 0.794276292,38.5162687 C0.504036784,37.9443568 0.303173772,37.3313362 0.198684243,36.6985613 C0.0858446216,36.0186374 0.0247937112,35.3311272 0.0160579514,34.6419589 C0.0091038932,34.4106323 -2.88657986e-14,33.640421 -2.88657986e-14,33.640421 L-2.88657986e-14,8.30246542 C-2.88657986e-14,8.30246542 0.00969619469,7.54408918 0.0161127941,7.3212851 C0.0244772172,6.63320852 0.0851731156,5.94676515 0.197675136,5.26789651 C0.30235754,4.63338814 0.503376051,4.01859981 0.793771739,3.44481447 C1.07979284,2.87698803 1.4558053,2.35918101 1.90723272,1.91146658 C2.35815275,1.45949823 2.87718301,1.08106441 3.4453958,0.789965653 C4.01657699,0.501365222 4.62788782,0.300244802 5.25884745,0.193342561 C5.93911376,0.082084363 6.62675769,0.0219327971 7.31600923,0.0133925947 L8.30572308,-3.88578059e-15 L121.02788,-3.88578059e-15 L122.029418,0.0139300535 C122.7124,0.0220458975 123.393797,0.0816608316 124.067813,0.192267643 C124.70516,0.300510814 125.322841,0.503034559 125.900547,0.793179437 C127.038883,1.37982779 127.965125,2.30796081 128.549451,3.4474908 C128.835211,4.01731506 129.033129,4.62708855 129.136487,5.25611629 C129.250329,5.94055507 129.314043,6.63239277 129.327121,7.32611126 C129.330302,7.63674048 129.330302,7.97040365 129.330302,8.30246542 C129.338967,8.71378589 129.338967,9.10528621 129.338967,9.5 L129.338967,32.4557083 C129.338967,32.8541956 129.338967,33.2430306 129.330302,33.6350464 C129.330302,33.9917435 129.330302,34.3184965 129.326024,34.6547921 C129.313229,35.3361315 129.250578,36.0156204 129.138571,36.6878121 C129.036224,37.3251517 128.836454,37.9429572 128.54627,38.5195593 C128.257164,39.0816108 127.881224,39.5945494 127.432304,40.0394707 C126.984219,40.4933323 126.46593,40.8720302 125.897366,41.1610046 C125.321261,41.4527609 124.704488,41.6560592 124.067813,41.7640552 C123.389824,41.8747947 122.704494,41.9345943 122.017572,41.9429522 C121.696303,41.9504108 121.359898,41.9546885 121.033255,41.9546885 L119.844264,41.9568823 L8.30518562,41.9546885 Z"></path>
                    </g>
                    <g id="_Group_" transform="translate(9.440299, 8.391376)" fill="#FFFFFF">
                        <g id="_Group_2">
                            <g id="_Group_3">
                                <path d="M16.540326,12.9024546 C16.5632523,11.1229888 17.4961488,9.47930384 19.0121738,8.54726725 C18.0514374,7.17516472 16.4999552,6.33641054 14.825758,6.2840291 C13.0643662,6.0991461 11.3567735,7.33801745 10.4592004,7.33801745 C9.54425717,7.33801745 8.16230236,6.30238524 6.67416517,6.33300328 C4.71616467,6.3962621 2.9350278,7.48251222 1.98242073,9.19432629 C-0.0461945274,12.7065579 1.46696994,17.8683558 3.41021343,20.7073787 C4.38245929,22.0975675 5.51873557,23.6504442 7.00553014,23.5953758 C8.46044797,23.5350313 9.00383155,22.6676252 10.7600417,22.6676252 C12.4999517,22.6676252 13.0097593,23.5953758 14.5267209,23.5603628 C16.0879155,23.5350208 17.0715421,22.1639958 18.009677,20.760643 C18.7082341,19.7700826 19.2457726,18.6752977 19.6023813,17.516841 C17.7481562,16.7325948 16.5424902,14.9157077 16.540326,12.9024546 L16.540326,12.9024546 Z" id="_Path_"></path>
                                <path d="M13.6750591,4.4168954 C14.5262872,3.39502704 14.945655,2.08158839 14.8441037,0.75550709 C13.5436164,0.892098231 12.3423304,1.51364663 11.4796023,2.49630862 C10.6276979,3.46583675 10.1961251,4.73423909 10.2799396,6.02214473 C11.5978649,6.03571439 12.8492072,5.44406619 13.6750591,4.4168954 L13.6750591,4.4168954 Z" id="_Path_2"></path>
                            </g>
                        </g>
                        <g id="Group" transform="translate(26.223051, 5.244610)">
                            <path d="M8.70843412,10.6357025 L3.74346646,10.6357025 L2.55113578,14.156357 L0.448172927,14.156357 L5.15091007,1.13084287 L7.33581472,1.13084287 L12.0385519,14.156357 L9.89972637,14.156357 L8.70843412,10.6357025 Z M4.25767952,9.01110058 L8.19323507,9.01110058 L6.25313835,3.29733893 L6.19884614,3.29733893 L4.25767952,9.01110058 Z" id="Shape"></path>
                            <path d="M22.1948655,9.40854764 C22.1948655,12.3596689 20.6153358,14.2557109 18.2317024,14.2557109 C16.9996231,14.3201615 15.8390717,13.674829 15.2437115,12.5942183 L15.1986079,12.5942183 L15.1986079,17.2979834 L13.2492911,17.2979834 L13.2492911,4.65971036 L15.1361551,4.65971036 L15.1361551,6.23924013 L15.1720072,6.23924013 C15.7938169,5.16540399 16.9556197,4.52034936 18.1958502,4.56034598 C20.6060738,4.56035647 22.1948655,6.46561849 22.1948655,9.40854764 Z M20.1912566,9.40854764 C20.1912566,7.48587351 19.1976442,6.22182803 17.6816267,6.22182803 C16.1922413,6.22182803 15.1904368,7.51249515 15.1904368,9.40854764 C15.1904368,11.3220122 16.1922413,12.6034593 17.6816267,12.6034593 C19.1976547,12.6034593 20.1912566,11.3486444 20.1912566,9.40854764 Z" id="Shape"></path>
                            <path d="M32.647206,9.40854764 C32.647206,12.3596689 31.0676762,14.2557109 28.6840428,14.2557109 C27.4519635,14.3201615 26.2914122,13.674829 25.696052,12.5942183 L25.6509483,12.5942183 L25.6509483,17.2979834 L23.7016316,17.2979834 L23.7016316,4.65971036 L25.5884536,4.65971036 L25.5884536,6.23924013 L25.6243057,6.23924013 C26.24612,5.16540464 27.4079272,4.5203538 28.6481592,4.56035647 C31.0584562,4.56035647 32.647206,6.46561849 32.647206,9.40854764 Z M30.6436075,9.40854764 C30.6436075,7.48587351 29.6499847,6.22182803 28.1339671,6.22182803 C26.6445817,6.22182803 25.6427772,7.51249515 25.6427772,9.40854764 C25.6427772,11.3220122 26.6445817,12.6034593 28.1339671,12.6034593 C29.6499951,12.6034593 30.6436075,11.3486444 30.6436075,9.40854764 L30.6436075,9.40854764 Z" id="Shape"></path>
                            <path d="M39.5553437,10.5271181 C39.6997803,11.8188132 40.9546058,12.6669191 42.6693311,12.6669191 C44.3123731,12.6669191 45.4944558,11.8187712 45.4944558,10.6540901 C45.4944558,9.64306563 44.781514,9.03770124 43.0934103,8.62283159 L41.4053066,8.21616451 C39.0134811,7.63843922 37.9030922,6.51985825 37.9030922,4.7047301 C37.9030922,2.45733068 39.861629,0.913653068 42.642699,0.913653068 C45.3950704,0.913653068 47.2819239,2.45733068 47.3454361,4.7047301 L45.3776583,4.7047301 C45.2598644,3.40484295 44.1853277,2.6202073 42.6150179,2.6202073 C41.0447082,2.6202073 39.9701819,3.41407347 39.9701819,4.56952405 C39.9701819,5.49040419 40.6564916,6.03227732 42.3353753,6.44709453 L43.7704685,6.7994694 C46.4429646,7.4314869 47.5533534,8.50501667 47.5533534,10.4102577 C47.5533534,12.8471554 45.6122288,14.3734209 42.5248735,14.3734209 C39.6362366,14.3734209 37.6859024,12.8830075 37.5599059,10.5270237 L39.5553437,10.5271181 Z" id="Path"></path>
                            <path d="M51.7603281,2.41231095 L51.7603281,4.65971036 L53.5662362,4.65971036 L53.5662362,6.20338798 L51.7603281,6.20338798 L51.7603281,11.4387782 C51.7603281,12.2521019 52.121923,12.6311089 52.9157786,12.6311089 C53.1301693,12.6273705 53.3442131,12.612315 53.5570162,12.5860053 L53.5570162,14.1204629 C53.2000977,14.1871529 52.8373201,14.2173565 52.4742874,14.2106072 C50.5516132,14.2106072 49.8017913,13.4884454 49.8017913,11.6466851 L49.8017913,6.20338798 L48.4209903,6.20338798 L48.4209903,4.65971036 L49.8017703,4.65971036 L49.8017703,2.41231095 L51.7603281,2.41231095 Z" id="Path"></path>
                            <path d="M54.6121269,9.40854764 C54.6121269,6.4205568 56.3719349,4.54294436 59.1161457,4.54294436 C61.8695661,4.54294436 63.621182,6.42051484 63.621182,9.40854764 C63.621182,12.404741 61.8787862,14.2741509 59.1161457,14.2741509 C56.3544808,14.2741509 54.6121269,12.4047306 54.6121269,9.40854764 Z M61.6349852,9.40854764 C61.6349852,7.35884905 60.695665,6.14910626 59.1161352,6.14910626 C57.5366055,6.14910626 56.5983132,7.36806907 56.5983132,9.40854764 C56.5983132,11.4664383 57.5366055,12.6669716 59.1161352,12.6669716 C60.695665,12.6669716 61.6349852,11.4664383 61.6349852,9.40854764 L61.6349852,9.40854764 Z" id="Shape"></path>
                            <path d="M65.2283194,4.65971036 L67.0875023,4.65971036 L67.0875023,6.27609925 L67.132606,6.27609925 C67.3918744,5.23555641 68.3452989,4.51941867 69.416875,4.56033549 C69.6415164,4.55955114 69.865538,4.58394751 70.0847447,4.63306774 L70.0847447,6.45638798 C69.8011486,6.36972952 69.5053092,6.32994178 69.2088947,6.33859403 C68.6358143,6.31534513 68.0811996,6.54373668 67.690676,6.9637998 C67.3001524,7.38386292 67.1127358,7.95363059 67.1776362,8.52349867 L67.1776362,14.156336 L65.2283194,14.156336 L65.2283194,4.65971036 Z" id="Path"></path>
                            <path d="M79.072255,11.3670739 C78.8100245,13.0910298 77.1311303,14.2741404 74.9830953,14.2741404 C72.2204549,14.2741404 70.505719,12.4231601 70.505719,9.45360933 C70.505719,6.47483852 72.2296749,4.54293387 74.9011535,4.54293387 C77.5285774,4.54293387 79.1808394,6.34781405 79.1808394,9.22723097 L79.1808394,9.89510062 L72.4734758,9.89510062 L72.4734758,10.0128946 C72.4108525,10.7199012 72.654983,11.4197397 73.1437684,11.9343938 C73.6325538,12.4490479 74.3188837,12.7289139 75.0281779,12.7028027 C75.9741402,12.7914362 76.8659975,12.2482394 77.2212852,11.3670634 L79.072255,11.3670739 Z M72.4826774,8.53273968 L77.2304947,8.53273968 C77.2658701,7.89743642 77.0346153,7.27618673 76.5924459,6.81865581 C76.1502766,6.36112489 75.5372836,6.10879662 74.9011535,6.12246364 C74.2599913,6.11863741 73.6438638,6.371084 73.1897171,6.82369242 C72.7355703,7.27630083 72.4810346,7.89156815 72.4826774,8.53273968 L72.4826774,8.53273968 Z" id="Shape"></path>
                        </g>
                    </g>
                </g>
            </g>
        </g>
    </g>
</svg>