<?xml version="1.0" encoding="UTF-8"?>
<svg width="25px" height="26px" viewBox="0 0 25 26" version="1.1" xmlns="http://www.w3.org/2000/svg" xmlns:xlink="http://www.w3.org/1999/xlink">
    <!-- Generator: Sketch 55.2 (78181) - https://sketchapp.com -->
    <title>concordium-white-logo</title>
    <desc>Created with Sketch.</desc>
    <g id="Symbols" stroke="none" stroke-width="1" fill="none" fill-rule="evenodd">
        <g id="concordium-white-logo" fill="#FFFFFF" fill-rule="nonzero">
            <path d="M23.8461,17.8447 L19.3916,17.8447 C20.5119,16.3777 21.2054,14.5372 21.2054,12.5366 C21.2054,10.5361 20.5119,8.69558 19.3916,7.22852 L23.8461,7.22852 C24.593,8.85562 25.0198,10.6428 25.0198,12.5366 C25.0198,14.4305 24.6197,16.2176 23.8461,17.8447 Z" id="Path"></path>
            <path d="M12.5103,17.8184 C15.4418,17.8184 17.8184,15.4418 17.8184,12.5103 C17.8184,9.57867 15.4418,7.20215 12.5103,7.20215 C9.57867,7.20215 7.20215,9.57867 7.20215,12.5103 C7.20215,15.4418 9.57867,17.8184 12.5103,17.8184 Z" id="Path"></path>
            <path d="M3.81437,12.5367 C3.81437,17.338 7.70876,21.2591 12.5101,21.2591 C13.7904,21.2591 15.0174,20.9657 16.111,20.4589 L16.111,24.54 C14.9641,24.8868 13.7637,25.0735 12.5101,25.0735 C5.60152,25.0735 0,19.4453 0,12.5367 C0,5.60152 5.60152,0 12.5101,0 C13.7637,0 14.9641,0.186717 16.111,0.533478 L16.111,4.61459 C15.0174,4.10778 13.7904,3.81437 12.5101,3.81437 C7.70876,3.81437 3.81437,7.70876 3.81437,12.5367 Z" id="Path"></path>
        </g>
    </g>
</svg>