<?xml version="1.0" encoding="UTF-8"?>
<svg width="463px" height="463px" viewBox="0 0 463 463" version="1.1" xmlns="http://www.w3.org/2000/svg" xmlns:xlink="http://www.w3.org/1999/xlink">
    <!-- Generator: Sketch 55.2 (78181) - https://sketchapp.com -->
    <title>Shield Copy</title>
    <desc>Created with Sketch.</desc>
    <g id="Shield-Copy" stroke="none" stroke-width="1" fill="none" fill-rule="evenodd">
        <polygon id="Rectangle" fill="#D8D8D8" opacity="0" points="0 0 463 0 463 463 0 463"></polygon>
        <g id="shield" transform="translate(57.000000, 9.000000)" stroke="#1D1D1D">
            <path d="M3.25308901,69.7967578 C78.2919229,38.7446614 134.438799,15.7354565 171.693717,0.769143203 C173.372858,0.0945864167 173.720983,0.132943027 175.550592,0.769143203 C197.902517,8.54145603 254.331846,31.5506609 344.838579,69.7967578 C349.41327,170.718059 349.41327,230.909135 344.838579,250.369986 C337.976542,279.561261 330.096123,304.095818 319.14884,323.315493 C290.722376,373.222614 242.354708,413.543285 174.045834,444.277504 C98.2823786,408.998542 50.0562403,368.677872 29.3674189,323.315493 C20.5132463,303.901804 7.71732869,284.122652 3.25308901,250.369986 C-0.724900466,220.293699 -0.724900466,160.102623 3.25308901,69.7967578 Z" id="Rectangle" stroke-width="12"></path>
            <g id="Group" transform="translate(95.000000, 91.000000)">
                <path d="M122.889135,5.85367477 C88.2846328,2.5921734 60.0014908,8.67620229 38.0397096,24.1057614 C21.6349917,35.6311273 5.27959742,60.8821061 3.02971705,87.3442307 C-4.09041892,171.088206 27.6791449,180.414688 38.0397096,184.921526 C48.4002742,189.428364 72.1173575,191.021246 90.8750969,176.392244 C109.632836,161.763242 109.632836,140.553163 108.600272,121.947272" id="Line" stroke-width="12" stroke-linecap="square"></path>
                <path d="M55.6191112,129.106888 C55.6191112,99.3660086 59.5570692,84.3978416 82.1834541,68.7962077 C94.3615187,60.3990331 117.921192,60.6652968 133.532303,68.7962077 C167.788289,86.6381392 161.778835,125.922674 161.778835,150.584219 C161.778835,175.245763 154.726355,212.028525 121.189284,231.009147 C87.6522139,249.989769 67.4040067,247.469764 42.3612935,245.17231" id="Line" stroke-width="12" stroke-linecap="square"></path>
                <path d="M155.901587,50.2249791 C148.570139,41.958414 120.530635,32.178468 97.165044,35.1361625 C68.0616943,38.8201616 51.6356448,46.8047728 39.3926488,68.8403008 C28.4306501,88.5702287 28.4306501,116.167453 29.7437133,128.324664 C31.4926189,144.517194 35.4574342,161.974721 58.6308433,161.974721 C82.5107465,161.974721 82.5107465,138.69161 82.1834541,116.167453 C81.9299727,98.7229454 94.5338534,89.9527088 109.044387,89.9527088 C122.889135,89.9527088 134.794774,100.047353 134.794774,116.167453 C134.794774,141.881433 141.247289,181.731354 106.452191,204.634056 C71.6570928,227.536757 21.1204667,215.000973 9.1199062,201.051604" id="Line" stroke-width="12" stroke-linecap="square"></path>
                <circle id="Oval" fill="#1D1D1D" cx="36.5" cy="244.5" r="5.5"></circle>
                <circle id="Oval" fill="#1D1D1D" cx="5.5" cy="196.5" r="5.5"></circle>
                <circle id="Oval" fill="#1D1D1D" cx="108.2" cy="115.5" r="5.5"></circle>
                <circle id="Oval" fill="#1D1D1D" cx="55.7" cy="135.5" r="5.5"></circle>
                <circle id="Oval" fill="#1D1D1D" cx="159.5" cy="54.5" r="5.5"></circle>
                <circle id="Oval" fill="#1D1D1D" cx="128.5" cy="6.4" r="5.5"></circle>
            </g>
        </g>
    </g>
</svg>