<?xml version="1.0" encoding="UTF-8"?>
<svg width="50px" height="45px" viewBox="0 0 50 45" version="1.1" xmlns="http://www.w3.org/2000/svg" xmlns:xlink="http://www.w3.org/1999/xlink">
    <!-- Generator: Sketch 55.2 (78181) - https://sketchapp.com -->
    <title>logo</title>
    <desc>Created with Sketch.</desc>
    <defs>
        <filter x="-44.4%" y="-38.7%" width="188.9%" height="177.4%" filterUnits="objectBoundingBox" id="filter-1">
            <feOffset dx="0" dy="2" in="SourceAlpha" result="shadowOffsetOuter1"></feOffset>
            <feGaussianBlur stdDeviation="2" in="shadowOffsetOuter1" result="shadowBlurOuter1"></feGaussianBlur>
            <feColorMatrix values="0 0 0 0 1   0 0 0 0 1   0 0 0 0 1  0 0 0 0.158107517 0" type="matrix" in="shadowBlurOuter1" result="shadowMatrixOuter1"></feColorMatrix>
            <feMerge>
                <feMergeNode in="shadowMatrixOuter1"></feMergeNode>
                <feMergeNode in="SourceGraphic"></feMergeNode>
            </feMerge>
        </filter>
    </defs>
    <g id="Page-1" stroke="none" stroke-width="1" fill="none" fill-rule="evenodd">
        <g id="Group-3" transform="translate(-32.000000, -796.000000)" fill-rule="nonzero">
            <g id="BrandLogo" transform="translate(34.000000, 797.000000)">
                <g id="logo">
                    <g id="hexagon-svgrepo-com-(1)" stroke="#FFFFFF" stroke-width="2">
                        <polygon id="Path" points="11.6661769 42.9894149 0.0801959227 21.4947075 11.6661769 0 34.8381388 0 46.4241198 21.4947075 34.8381388 42.9894149"></polygon>
                    </g>
                    <g id="fingerprint" filter="url(#filter-1)" transform="translate(10.000000, 7.000000)" fill="#EDEDED">
                        <path d="M10.7212927,30.7007824 C10.4010384,30.3912946 10.0489771,30.111868 9.7656853,29.7677381 C7.43149879,26.9251834 6.22969311,23.6045114 6.21119438,19.8244271 C6.19782496,17.4072153 7.07167798,15.3730699 8.76797731,13.7709478 C12.5471356,10.2071232 18.5293815,11.6188478 20.5603968,16.5470815 C20.974237,17.5355721 21.1926042,18.6045124 21.2018946,19.687195 C21.2054493,20.2409903 20.8641359,20.645529 20.3897401,20.6559311 C19.8983048,20.6663333 19.5410006,20.2755369 19.5256214,19.7102897 C19.4398125,16.5548115 17.41037,14.0931282 14.4968858,13.6106211 C12.1204502,13.21658 9.63461259,14.6062692 8.51250786,16.9384505 C7.95323808,18.1004376 7.81394274,19.3337128 7.89567094,20.6158494 C8.10882138,23.8706729 9.27396166,26.6754363 11.3910743,29.0300443 C11.9827365,29.6887199 11.8937818,30.2924264 11.1340844,30.7029774 L10.7212927,30.7007824 Z" id="Path"></path>
                        <path d="M14.3306499,0.431857016 C14.8738257,0.483883283 15.4190396,0.522382553 15.9606205,0.591057815 C18.4859008,0.902505861 20.9124703,1.76102851 23.0704645,3.10652777 C24.205197,3.81392305 25.2580543,4.64426965 26.2099855,5.58246099 C26.5008903,5.86808401 26.5691196,6.23643142 26.4065213,6.5813591 C26.2548219,6.90392541 25.9150047,7.1115098 25.5526807,7.03659199 C25.3428536,6.99157074 25.1491533,6.8905104 24.9924032,6.74420266 C23.1090983,4.90091878 20.9135336,3.5789297 18.3902026,2.8188242 C15.9539748,2.07549877 13.3747312,1.92564506 10.8685019,2.38180063 C7.59191097,2.97021571 4.77871196,4.44412096 2.40597274,6.76866267 C2.02649396,7.14012185 1.48178516,7.14741281 1.14975053,6.79675006 C0.817713249,6.44609635 0.849508974,5.92583278 1.22116265,5.56425167 C4.08753176,2.77304311 7.50225594,1.1003949 11.4768057,0.587936089 C12.0095256,0.51874087 12.5464102,0.483883283 13.0796618,0.431857016 L14.3306499,0.431857016 Z" id="Path"></path>
                        <path d="M14.286739,8.94560962 C17.8271962,9.09351977 21.0310475,10.9011713 23.2022136,14.5337368 C24.2444196,16.2762656 24.720188,18.2011455 24.7291537,20.2411404 C24.7421657,22.6259192 22.8630273,24.5621142 20.5327676,24.5933477 C19.4161755,24.6084033 18.3390899,24.1684228 17.537393,23.3696313 C16.7356961,22.5708398 16.2745202,21.4783227 16.2548559,20.3310068 C16.2292301,18.9169906 15.3462068,17.8569226 14.033417,17.6660618 C12.5578854,17.4508874 11.1692859,18.6443055 11.1629684,20.1884923 C11.1535366,22.6259192 11.9428655,24.7708361 13.5157397,26.601548 C14.4187832,27.6540414 15.5391123,28.4860301 16.7950448,29.0369176 C17.2006981,29.2170244 17.4021456,29.5510543 17.3707362,29.9350203 C17.3419961,30.3040242 17.1054021,30.6396438 16.7389883,30.693414 C16.5000809,30.7224032 16.2578812,30.6851848 16.0375703,30.5858736 C14.5092744,29.9096782 13.1565332,28.8748589 12.0879006,27.5642685 C10.3605596,25.4554477 9.47646859,23.0184885 9.47077396,20.2583468 C9.4660581,18.3700307 10.6573032,16.6887532 12.376814,16.1202852 C14.1601225,15.5287194 16.0742294,16.1681641 17.1609247,17.7289963 C17.6879448,18.4861743 17.9381525,19.3370528 17.9523001,20.2723738 C17.9679603,21.3259894 18.4579653,22.1165517 19.3655467,22.5796301 C20.2632515,23.0368171 21.1645154,22.9599491 21.9857876,22.3516444 C22.6735919,21.8428379 23.0436538,21.1323231 23.0284385,20.2589079 C22.9672212,16.8167731 21.5659867,14.0738379 18.7421628,12.2312498 C15.5492559,10.1455175 12.1993018,10.1003412 8.93789021,12.0559122 C6.24853967,13.6693924 4.75416241,16.1665744 4.4291148,19.3704371 C4.40033023,19.6549048 4.39457332,19.942178 4.38253452,20.2282355 C4.36159786,20.7456452 3.99990888,21.1211015 3.52149781,21.1172674 C3.04309564,21.1135269 2.67303377,20.7252593 2.68402262,20.2083172 C2.74683259,16.8388422 3.97793117,14.0001493 6.43958555,11.7713509 C8.53328686,9.8733748 11.0111709,8.94937821 14.286739,8.94560962 Z" id="Path"></path>
                        <path d="M13.2109318,4.21574706 C17.9914046,4.36807974 21.8386914,6.5234376 24.7362149,10.8472004 C25.4142142,11.8588888 25.9499827,12.9656623 26.3960743,14.1307905 C26.6165189,14.7051291 26.4510973,15.2471863 25.9915145,15.4805017 C25.5511544,15.7048155 25.0801084,15.4768804 24.8674235,14.9240627 C23.6936002,11.8713047 21.8588842,9.4815451 19.2886768,7.92601979 C15.4356584,5.59691183 11.503809,5.51955046 7.58754068,7.72667226 C4.85444243,9.26730884 2.91341916,11.7136228 1.67421204,14.9038869 C1.45012573,15.4816398 0.987439025,15.7095749 0.537191569,15.478122 C0.0781302977,15.2400472 -0.0894141901,14.7045083 0.141413321,14.1278935 C2.24739438,8.87575292 5.76841444,5.66653396 10.704477,4.5001952 C10.9756238,4.43761909 11.2495924,4.3925287 11.5250599,4.36511027 C12.1013902,4.3056071 12.6792195,4.26216181 13.2109318,4.21574706 Z" id="Path"></path>
                        <path d="M20.0062696,27.8650598 C17.0072381,27.7971238 14.1121861,25.6296096 12.9862657,22.6256862 C12.6017081,21.6124617 12.3973569,20.530487 12.3838507,19.4360864 C12.3767275,18.8438166 12.7364929,18.4191952 13.2430692,18.4056489 C13.749738,18.3922044 14.1257848,18.8116313 14.1416038,19.3986049 C14.2362399,22.8670756 16.5022344,25.5429335 19.6960887,25.9542122 C19.884436,25.9782493 20.0770386,25.9740734 20.2658483,25.9811012 C20.8171062,26.0021846 21.2067518,26.3994077 21.2018946,26.9376959 C21.1969459,27.476086 20.8029524,27.8656702 20.2501219,27.8650598 L20.0062696,27.8650598 Z" id="Path"></path>
                    </g>
                </g>
            </g>
        </g>
    </g>
</svg>