<?xml version="1.0" encoding="UTF-8"?>
<svg width="76px" height="65px" viewBox="0 0 76 65" version="1.1" xmlns="http://www.w3.org/2000/svg" xmlns:xlink="http://www.w3.org/1999/xlink">
    <!-- Generator: Sketch 55.2 (78181) - https://sketchapp.com -->
    <title>logo</title>
    <desc>Created with Sketch.</desc>
    <defs>
        <linearGradient x1="50%" y1="0%" x2="50%" y2="100%" id="linearGradient-1">
            <stop stop-color="#8DBEF2" offset="0%"></stop>
            <stop stop-color="#50C2E5" offset="100%"></stop>
        </linearGradient>
        <filter x="-27.2%" y="-25.4%" width="154.5%" height="150.8%" filterUnits="objectBoundingBox" id="filter-2">
            <feOffset dx="0" dy="2" in="SourceAlpha" result="shadowOffsetOuter1"></feOffset>
            <feGaussianBlur stdDeviation="2" in="shadowOffsetOuter1" result="shadowBlurOuter1"></feGaussianBlur>
            <feColorMatrix values="0 0 0 0 1   0 0 0 0 1   0 0 0 0 1  0 0 0 0.158107517 0" type="matrix" in="shadowBlurOuter1" result="shadowMatrixOuter1"></feColorMatrix>
            <feMerge>
                <feMergeNode in="shadowMatrixOuter1"></feMergeNode>
                <feMergeNode in="SourceGraphic"></feMergeNode>
            </feMerge>
        </filter>
    </defs>
    <g id="Page-1" stroke="none" stroke-width="1" fill="none" fill-rule="evenodd">
        <g id="PAges" transform="translate(-51.000000, -44.000000)" fill-rule="nonzero">
            <g id="landing">
                <g id="BrandLogo" transform="translate(51.397181, 44.054726)">
                    <g id="logo">
                        <g id="hexagon-svgrepo-com-(1)" fill="url(#linearGradient-1)">
                            <polygon id="Path" points="18.891717 63.9842454 0.12986591 31.9921227 18.891717 0 56.4154193 0 75.1772704 31.9921227 56.4154193 63.9842454"></polygon>
                        </g>
                        <g id="fingerprint" filter="url(#filter-2)" transform="translate(15.733831, 9.440299)" fill="#EDEDED">
                            <path d="M17.6622453,46.4208105 C17.1346587,45.9528525 16.5546733,45.5303483 16.0879787,45.0100102 C12.2426425,40.7119538 10.2627892,35.690965 10.2323144,29.9753263 C10.2102897,26.3204055 11.6498741,23.2446964 14.4443557,20.8222237 C20.6701367,15.4335784 30.5252816,17.5681624 33.8711739,25.0198488 C34.5529338,26.5144862 34.9126716,28.1307666 34.9279766,29.767826 C34.9338326,30.6051865 34.3715534,31.2168652 33.5900343,31.2325937 C32.7804444,31.2483222 32.1918218,30.6574224 32.1664862,29.8027461 C32.0251246,25.0315369 28.6818235,21.3093733 23.882153,20.5798033 C19.9672157,19.9839974 15.8720496,22.085263 14.0234956,25.6116144 C13.1021552,27.3685853 12.8726802,29.2333467 13.0073192,31.1719886 C13.358463,36.0934118 15.2779137,40.3343263 18.7656426,43.8945877 C19.7403463,44.8905316 19.5938024,45.8033599 18.3422778,46.4241294 L17.6622453,46.4208105 Z" id="Path"></path>
                            <path d="M23.608296,0.652985075 C24.5031233,0.731650871 25.401308,0.789863305 26.2935077,0.893703048 C30.4536517,1.36462494 34.4511794,2.66274551 38.0062566,4.6971942 C39.8756135,5.76680414 41.6100895,7.0223214 43.1782999,8.44090421 C43.6575361,8.87277764 43.7699369,9.42973365 43.5020726,9.95127809 C43.2521632,10.4390112 42.6923488,10.7528871 42.0954567,10.6396084 C41.7497877,10.5715345 41.4306861,10.4187272 41.1724562,10.1975041 C38.0699017,7.41038514 34.4529311,5.4114848 30.2959986,4.2621749 C26.2825596,3.13823713 22.0335168,2.91165232 17.9047575,3.60137778 C12.5069054,4.49108491 7.87244456,6.71968857 3.96359671,10.2344886 C3.33844381,10.7961497 2.44109116,10.8071739 1.8940977,10.2769578 C1.34709986,9.74675542 1.3994801,8.96009609 2.01174194,8.413371 C6.7337951,4.19295205 12.3592078,1.66384108 18.9068764,0.888982873 C19.7844786,0.784356936 20.6689417,0.731650871 21.5474198,0.652985075 L23.608296,0.652985075 Z" id="Path"></path>
                            <path d="M23.5359573,13.5261194 C29.3685025,13.7497655 34.6465234,16.4830068 38.2232999,21.9755912 C39.9402288,24.6103643 40.7240091,27.5208597 40.7387792,30.6054135 C40.7602151,34.2112944 37.6645247,37.1388987 33.8256575,37.186125 C31.9861851,37.2088897 30.2117956,36.5436215 28.891081,35.3358169 C27.5703665,34.1280122 26.8106258,32.4760827 26.7782309,30.7412951 C26.7360149,28.6032461 25.2813233,27.000381 23.1186349,26.7117917 C20.6878459,26.3864395 18.4002686,28.1909353 18.3898612,30.5258076 C18.3743234,34.2112944 19.6746629,37.4544946 22.2658139,40.2226042 C23.7534867,41.8140162 25.5991157,43.0720165 27.6681374,43.9049803 C28.3364102,44.177309 28.6682746,44.6823756 28.6165307,45.2629476 C28.5691843,45.8208962 28.1794196,46.3283665 27.57579,46.4096692 C27.1822142,46.4535019 26.7832147,46.3972263 26.4202747,46.2470638 C23.9025618,45.2246292 21.6740576,43.6599411 19.9135935,41.6782761 C17.067974,38.4896547 15.6115234,34.8048749 15.6021421,30.6314304 C15.5943732,27.7762209 17.5568289,25.2340621 20.3895491,24.3745158 C23.3273694,23.4800447 26.480667,24.4469105 28.2708875,26.8069512 C29.1390998,27.9518347 29.5512917,29.2383969 29.5745984,30.6526398 C29.6003971,32.2457486 30.4076307,33.4411104 31.9027792,34.1413034 C33.3816571,34.8325885 34.8663982,34.716361 36.2193611,33.79658 C37.3524491,33.0272443 37.9620886,31.9529174 37.9370229,30.6322788 C37.8361736,25.4276332 35.5277816,21.2802056 30.8758174,18.4941387 C25.6158262,15.3404281 20.0971156,15.2721197 14.72427,18.2290212 C10.293837,20.6686679 7.83200165,24.4445068 7.2965186,29.2888753 C7.24909893,29.719002 7.239615,30.1533705 7.2197823,30.5859009 C7.18529127,31.368245 6.58944526,31.9359499 5.80131142,31.9301527 C5.01319223,31.9244968 4.40355274,31.3374206 4.42165576,30.5557835 C4.52512884,25.4610027 6.55323921,21.1687856 10.6085658,17.7987532 C14.0577269,14.9289374 18.1397903,13.5318177 23.5359573,13.5261194 Z" id="Path"></path>
                            <path d="M21.7636738,6.37437811 C29.6390191,6.60471121 35.977035,9.86369846 40.7504118,16.4014006 C41.8673471,17.931114 42.7499715,19.6045998 43.4848623,21.3663202 C43.8480225,22.2347431 43.5755071,23.0543554 42.8183909,23.4071375 C42.0929422,23.746309 41.3169416,23.4016619 40.9665647,22.5657795 C39.0328096,17.9498873 36.0103005,14.3364753 31.7761439,11.9844588 C25.4286858,8.46275447 18.9513617,8.34578098 12.4997057,11.6830374 C7.99720284,14.0125415 4.79956335,17.7114661 2.75809498,22.5352728 C2.38893545,23.4088584 1.62670591,23.7535054 0.884968769,23.4035393 C0.128711762,23.0435607 -0.147300833,22.2338045 0.232964141,21.3619398 C3.70235491,13.4204933 9.50287928,8.56802591 17.6345431,6.80447507 C18.08123,6.70985749 18.5325654,6.64167902 18.9863703,6.60022125 C19.9358162,6.51025007 20.8877315,6.44455907 21.7636738,6.37437811 Z" id="Path"></path>
                            <path d="M32.9583054,42.1330846 C28.0177043,42.0303625 23.248399,38.7529945 21.3935591,34.2109422 C20.7600393,32.6789062 20.4233914,31.0429172 20.4011413,29.3881398 C20.3894066,28.4926041 20.9820836,27.8505596 21.8166168,27.830077 C22.6513024,27.8097485 23.2708016,28.4439387 23.2968617,29.3314661 C23.4527652,34.5759326 27.1857619,38.6219367 32.4473138,39.2438066 C32.7575968,39.2801516 33.0748901,39.2738374 33.3859351,39.2844637 C34.2940766,39.3163427 34.9359783,39.9169599 34.9279766,40.7308733 C34.9198241,41.5449406 34.2707597,42.1340075 33.3600273,42.1330846 L32.9583054,42.1330846 Z" id="Path"></path>
                        </g>
                    </g>
                </g>
            </g>
        </g>
    </g>
</svg>