<?xml version="1.0" encoding="UTF-8"?>
<svg width="512px" height="523px" viewBox="0 0 512 523" version="1.1" xmlns="http://www.w3.org/2000/svg" xmlns:xlink="http://www.w3.org/1999/xlink">
    <!-- Generator: Sketch 55.2 (78181) - https://sketchapp.com -->
    <title>NFT</title>
    <desc>Created with Sketch.</desc>
    <defs>
        <linearGradient x1="50%" y1="0%" x2="50%" y2="100%" id="linearGradient-1">
            <stop stop-color="#EEEEEE" offset="0%"></stop>
            <stop stop-color="#E0E3E5" offset="100%"></stop>
        </linearGradient>
        <filter x="-66.8%" y="-56.7%" width="233.8%" height="212.6%" filterUnits="objectBoundingBox" id="filter-2">
            <feOffset dx="0" dy="8" in="SourceAlpha" result="shadowOffsetOuter1"></feOffset>
            <feGaussianBlur stdDeviation="11" in="shadowOffsetOuter1" result="shadowBlurOuter1"></feGaussianBlur>
            <feColorMatrix values="0 0 0 0 0   0 0 0 0 0   0 0 0 0 0  0 0 0 0.236423733 0" type="matrix" in="shadowBlurOuter1" result="shadowMatrixOuter1"></feColorMatrix>
            <feMerge>
                <feMergeNode in="shadowMatrixOuter1"></feMergeNode>
                <feMergeNode in="SourceGraphic"></feMergeNode>
            </feMerge>
        </filter>
        <filter x="-48.5%" y="-49.2%" width="197.1%" height="199.1%" filterUnits="objectBoundingBox" id="filter-3">
            <feOffset dx="0" dy="2" in="SourceAlpha" result="shadowOffsetOuter1"></feOffset>
            <feGaussianBlur stdDeviation="14.5" in="shadowOffsetOuter1" result="shadowBlurOuter1"></feGaussianBlur>
            <feColorMatrix values="0 0 0 0 0   0 0 0 0 0   0 0 0 0 0  0 0 0 0.237024694 0" type="matrix" in="shadowBlurOuter1" result="shadowMatrixOuter1"></feColorMatrix>
            <feMerge>
                <feMergeNode in="shadowMatrixOuter1"></feMergeNode>
                <feMergeNode in="SourceGraphic"></feMergeNode>
            </feMerge>
        </filter>
    </defs>
    <g id="Page-1" stroke="none" stroke-width="1" fill="none" fill-rule="evenodd">
        <g id="NFT" transform="translate(0.000000, 11.000000)">
            <rect id="Rectangle" fill="url(#linearGradient-1)" x="0" y="0.984466078" width="512" height="510.007782"></rect>
            <g id="Group-4" transform="translate(0.000000, 1.000000)" stroke="#1E2246" stroke-width="14">
                <path d="M64.8732943,398.890253 C81.9721464,351.719676 117.722653,326.623213 172.807325,314.88499 C197.855549,336.818011 209.644024,351.719676 258.096358,351.719676 C303.188523,351.719676 307.007201,336.818011 336.738899,316.803245 C365.026501,319.826065 427.438487,353.266342 443.134503,398.890253 C396.981802,444.834565 319.945931,467.586745 258.096358,467.586745 C193.858862,467.586745 88.8460156,438.008995 64.8732943,398.890253 Z" id="Path"></path>
                <path d="M163.717824,201.597047 C162.05676,132.78835 215.907085,101.302144 256.214922,101.302144 C296.522758,101.302144 349.102827,131.141067 351.264579,201.597047 C353.001986,249.407188 308.539757,316.881092 256.214922,316.881092 C203.890087,316.881092 162.628902,249.407188 163.717824,201.597047 Z" id="Path-9"></path>
            </g>
            <g id="verified-user-shield-check" filter="url(#filter-2)" transform="translate(363.290448, 346.281564)" fill-rule="nonzero">
                <path d="M52.3976608,0 L0,23.0919689 L0,57.7299223 C0,89.7700291 22.3563353,119.731859 52.3976608,127.005829 C82.4389864,119.731859 104.795322,89.7700291 104.795322,57.7299223 L104.795322,23.0919689 L52.3976608,0 Z" id="Shape-Copy-2" stroke="#FFFFFF" stroke-width="24" fill="#FFFFFF"></path>
                <path d="M52.3976608,0 L0,23.0919689 L0,57.7299223 C0,89.7700291 22.3563353,119.731859 52.3976608,127.005829 C82.4389864,119.731859 104.795322,89.7700291 104.795322,57.7299223 L104.795322,23.0919689 L52.3976608,0 Z" id="Shape" stroke="#1E2246" stroke-width="10" fill="#FFFFFF"></path>
                <polygon id="Path" fill="#1D2043" transform="translate(54.348421, 67.051520) rotate(-10.000000) translate(-54.348421, -67.051520) " points="42.7986308 94.1070391 19.5984718 71.0871395 27.7588009 62.9903842 42.780841 77.8382824 80.9202513 39.9960005 89.0983702 48.1680019"></polygon>
            </g>
            <g id="qr-code-scan" filter="url(#filter-3)" transform="translate(354.307992, 13.883496)">
                <rect id="Rectangle" stroke="#FFFFFF" stroke-width="13" fill="#FFFFFF" x="6.5" y="6.5" width="109.760234" height="108.052431" rx="18"></rect>
                <path d="M41.2376396,105.176702 L21.0951621,105.176702 C18.3140664,105.176702 16.0595428,102.955513 16.0595428,100.215537 L16.0595428,80.3708762 C16.0595428,77.6309003 13.8050192,75.409711 11.0239234,75.409711 C8.24282767,75.409711 5.98830409,77.6309003 5.98830409,80.3708762 L5.98830409,100.215537 C5.98830409,108.435465 12.7518748,115.099033 21.0951621,115.099033 L41.2376396,115.099033 C44.0187353,115.099033 46.2732589,112.877843 46.2732589,110.137867 C46.2732589,107.397891 44.0187353,105.176702 41.2376396,105.176702 Z M111.73631,75.409711 C108.955215,75.409711 106.700691,77.6309003 106.700691,80.3708762 L106.700691,100.215537 C106.700691,102.955513 104.446168,105.176702 101.665072,105.176702 L81.5225944,105.176702 C78.7414986,105.176702 76.486975,107.397891 76.486975,110.137867 C76.486975,112.877843 78.7414986,115.099033 81.5225944,115.099033 L101.665072,115.099033 C110.008359,115.099033 116.77193,108.435465 116.77193,100.215537 L116.77193,80.3708762 C116.77193,77.6309003 114.517406,75.409711 111.73631,75.409711 Z M101.665072,5.95339823 L81.5225944,5.95339823 C78.7414986,5.95339823 76.486975,8.17458755 76.486975,10.9145634 C76.486975,13.6545393 78.7414986,15.8757286 81.5225944,15.8757286 L101.665072,15.8757286 C104.446168,15.8757286 106.700691,18.0969179 106.700691,20.8368938 L106.700691,40.6815546 C106.700691,43.4215305 108.955215,45.6427198 111.73631,45.6427198 C114.517406,45.6427198 116.77193,43.4215305 116.77193,40.6815546 L116.77193,20.8368938 C116.77193,12.6169662 110.008359,5.95339823 101.665072,5.95339823 Z M11.0239234,45.6427198 C13.8050192,45.6427198 16.0595428,43.4215305 16.0595428,40.6815546 L16.0595428,20.8368938 C16.0595428,18.0969179 18.3140664,15.8757286 21.0951621,15.8757286 L41.2376396,15.8757286 C44.0187353,15.8757286 46.2732589,13.6545393 46.2732589,10.9145634 C46.2732589,8.17458755 44.0187353,5.95339823 41.2376396,5.95339823 L21.0951621,5.95339823 C12.7518748,5.95339823 5.98830409,12.6169662 5.98830409,20.8368938 L5.98830409,40.6815546 C5.98830409,41.9973374 6.51884104,43.2592292 7.46320285,44.1896282 C8.40756467,45.1200271 9.68839416,45.6427198 11.0239234,45.6427198 Z M51.3088783,25.798059 L31.1664009,25.798059 C28.3853051,25.798059 26.1307815,28.0192483 26.1307815,30.7592242 L26.1307815,50.603885 C26.1307815,53.3438609 28.3853051,55.5650502 31.1664009,55.5650502 L51.3088783,55.5650502 C54.089974,55.5650502 56.3444976,53.3438609 56.3444976,50.603885 L56.3444976,30.7592242 C56.3444976,28.0192483 54.089974,25.798059 51.3088783,25.798059 Z M46.2732589,45.6427198 L36.2020202,45.6427198 L36.2020202,35.7203894 L46.2732589,35.7203894 L46.2732589,45.6427198 Z M71.4513557,55.5650502 L91.5938331,55.5650502 C94.3749288,55.5650502 96.6294524,53.3438609 96.6294524,50.603885 L96.6294524,30.7592242 C96.6294524,28.0192483 94.3749288,25.798059 91.5938331,25.798059 L71.4513557,25.798059 C68.6702599,25.798059 66.4157363,28.0192483 66.4157363,30.7592242 L66.4157363,50.603885 C66.4157363,53.3438609 68.6702599,55.5650502 71.4513557,55.5650502 Z M76.486975,35.7203894 L86.5582137,35.7203894 L86.5582137,45.6427198 L76.486975,45.6427198 L76.486975,35.7203894 Z M51.3088783,65.4873806 L31.1664009,65.4873806 C28.3853051,65.4873806 26.1307815,67.7085699 26.1307815,70.4485458 L26.1307815,90.2932066 C26.1307815,93.0331824 28.3853051,95.2543718 31.1664009,95.2543718 L51.3088783,95.2543718 C54.089974,95.2543718 56.3444976,93.0331824 56.3444976,90.2932066 L56.3444976,70.4485458 C56.3444976,67.7085699 54.089974,65.4873806 51.3088783,65.4873806 Z M46.2732589,85.3320414 L36.2020202,85.3320414 L36.2020202,75.409711 L46.2732589,75.409711 L46.2732589,85.3320414 Z M71.4513557,80.3708762 C74.2324514,80.3708762 76.486975,78.1496869 76.486975,75.409711 C79.2680708,75.409711 81.5225944,73.1885217 81.5225944,70.4485458 C81.5225944,67.7085699 79.2680708,65.4873806 76.486975,65.4873806 L71.4513557,65.4873806 C68.6702599,65.4873806 66.4157363,67.7085699 66.4157363,70.4485458 L66.4157363,75.409711 C66.4157363,78.1496869 68.6702599,80.3708762 71.4513557,80.3708762 Z M91.5938331,65.4873806 C88.8127373,65.4873806 86.5582137,67.7085699 86.5582137,70.4485458 L86.5582137,85.3320414 C83.7771179,85.3320414 81.5225944,87.5532307 81.5225944,90.2932066 C81.5225944,93.0331824 83.7771179,95.2543718 86.5582137,95.2543718 L91.5938331,95.2543718 C94.3749288,95.2543718 96.6294524,93.0331824 96.6294524,90.2932066 L96.6294524,70.4485458 C96.6294524,67.7085699 94.3749288,65.4873806 91.5938331,65.4873806 Z M71.4513557,85.3320414 C68.6702599,85.3320414 66.4157363,87.5532307 66.4157363,90.2932066 C66.4157363,93.0331824 68.6702599,95.2543718 71.4513557,95.2543718 C74.2324514,95.2543718 76.486975,93.0331824 76.486975,90.2932066 C76.486975,87.5532307 74.2324514,85.3320414 71.4513557,85.3320414 Z" id="Shape" fill="#1E2247" fill-rule="nonzero"></path>
            </g>
        </g>
    </g>
</svg>