<?xml version="1.0" encoding="UTF-8"?>
<svg width="44px" height="43px" viewBox="0 0 44 43" version="1.1" xmlns="http://www.w3.org/2000/svg" xmlns:xlink="http://www.w3.org/1999/xlink">
    <!-- Generator: Sketch 55.2 (78181) - https://sketchapp.com -->
    <title>qr</title>
    <desc>Created with Sketch.</desc>
    <g id="Page-1" stroke="none" stroke-width="1" fill="none" fill-rule="evenodd">
        <g id="Group-3" transform="translate(-198.000000, -1160.000000)" fill="#1E2247" fill-rule="nonzero">
            <path d="M212,1199 L204,1199 C202.895431,1199 202,1198.10457 202,1197 L202,1189 C202,1187.89543 201.104569,1187 200,1187 C198.895431,1187 198,1187.89543 198,1189 L198,1197 C198,1200.31371 200.686292,1203 204,1203 L212,1203 C213.104569,1203 214,1202.10457 214,1201 C214,1199.89543 213.104569,1199 212,1199 Z M240,1187 C238.895431,1187 238,1187.89543 238,1189 L238,1197 C238,1198.10457 237.104569,1199 236,1199 L228,1199 C226.895431,1199 226,1199.89543 226,1201 C226,1202.10457 226.895431,1203 228,1203 L236,1203 C239.313708,1203 242,1200.31371 242,1197 L242,1189 C242,1187.89543 241.104569,1187 240,1187 Z M236,1160 L228,1160 C226.895431,1160 226,1160.89543 226,1162 C226,1163.10457 226.895431,1164 228,1164 L236,1164 C237.104569,1164 238,1164.89543 238,1166 L238,1174 C238,1175.10457 238.895431,1176 240,1176 C241.104569,1176 242,1175.10457 242,1174 L242,1166 C242,1162.68629 239.313708,1160 236,1160 Z M200,1176 C201.104569,1176 202,1175.10457 202,1174 L202,1166 C202,1164.89543 202.895431,1164 204,1164 L212,1164 C213.104569,1164 214,1163.10457 214,1162 C214,1160.89543 213.104569,1160 212,1160 L204,1160 C200.686292,1160 198,1162.68629 198,1166 L198,1174 C198,1174.53043 198.210714,1175.03914 198.585786,1175.41421 C198.960859,1175.78929 199.469567,1176 200,1176 Z M216,1168 L208,1168 C206.895431,1168 206,1168.82081 206,1169.83333 L206,1177.16667 C206,1178.17919 206.895431,1179 208,1179 L216,1179 C217.104569,1179 218,1178.17919 218,1177.16667 L218,1169.83333 C218,1168.82081 217.104569,1168 216,1168 Z M214,1176 L210,1176 L210,1172 L214,1172 L214,1176 Z M224,1179 L232,1179 C233.104569,1179 234,1178.17919 234,1177.16667 L234,1169.83333 C234,1168.82081 233.104569,1168 232,1168 L224,1168 C222.895431,1168 222,1168.82081 222,1169.83333 L222,1177.16667 C222,1178.17919 222.895431,1179 224,1179 Z M225,1172 L229,1172 L229,1176 L225,1176 L225,1172 Z M216,1184 L208,1184 C206.895431,1184 206,1184.82081 206,1185.83333 L206,1193.16667 C206,1194.17919 206.895431,1195 208,1195 L216,1195 C217.104569,1195 218,1194.17919 218,1193.16667 L218,1185.83333 C218,1184.82081 217.104569,1184 216,1184 Z M214,1191 L210,1191 L210,1187 L214,1187 L214,1191 Z M224,1190 C225.104569,1190 226,1189.10457 226,1188 C227.104569,1188 228,1187.10457 228,1186 C228,1184.89543 227.104569,1184 226,1184 L224,1184 C222.895431,1184 222,1184.89543 222,1186 L222,1188 C222,1189.10457 222.895431,1190 224,1190 Z M232,1184 C230.895431,1184 230,1184.82081 230,1185.83333 L230,1191.33333 C228.895431,1191.33333 228,1192.15414 228,1193.16667 C228,1194.17919 228.895431,1195 230,1195 L232,1195 C233.104569,1195 234,1194.17919 234,1193.16667 L234,1185.83333 C234,1184.82081 233.104569,1184 232,1184 Z M224,1191 C222.895431,1191 222,1191.89543 222,1193 C222,1194.10457 222.895431,1195 224,1195 C225.104569,1195 226,1194.10457 226,1193 C226,1191.89543 225.104569,1191 224,1191 Z" id="qr"></path>
        </g>
    </g>
</svg>