<?xml version="1.0" encoding="UTF-8"?>
<svg width="31px" height="36px" viewBox="0 0 31 36" version="1.1" xmlns="http://www.w3.org/2000/svg" xmlns:xlink="http://www.w3.org/1999/xlink">
    <!-- Generator: Sketch 55.2 (78181) - https://sketchapp.com -->
    <title>tiktok-icon</title>
    <desc>Created with Sketch.</desc>
    <g id="Page-1" stroke="none" stroke-width="1" fill="none" fill-rule="evenodd">
        <g id="tiktok-icon" transform="translate(-8.000000, -6.000000)" fill="#000000" fill-rule="nonzero">
            <g id="tiktok-svgrepo-com" transform="translate(8.000000, 6.000000)">
                <path d="M16.2834723,0.0303766201 C18.2292475,0 20.1638721,0.0180009601 22.0962666,0 C22.2133476,2.29624747 23.0317997,4.63524722 24.6976955,6.25870881 C26.3602461,7.92267255 28.7119022,8.68433818 31,8.94197692 L31,14.9824241 C28.8557446,14.9115453 26.7014537,14.4615213 24.7556785,13.5299716 C23.9082349,13.142951 23.1187742,12.6445494 22.3460394,12.1348972 C22.3360039,16.518131 22.3638803,20.8957395 22.318163,25.2609723 C22.202197,27.3580841 21.5164367,29.4450704 20.3077145,31.1731626 C18.3630544,34.049941 14.9877756,35.9254161 11.5210621,35.9839192 C9.3946476,36.1065507 7.27046323,35.5215195 5.45849493,34.443712 C2.45564532,32.6571168 0.342611529,29.3865673 0.0348556839,25.8763801 C-0.000826153304,25.1259651 -0.0130917848,24.3766751 0.0170147653,23.6442611 C0.284628544,20.7899838 1.6840256,18.0594632 3.85615743,16.2019891 C6.3182042,14.0384987 9.76707677,13.0079438 12.996283,13.6177263 C13.0263896,15.8397198 12.9383,18.0594632 12.9383,20.2814567 C11.4630791,19.799931 9.73920034,19.9349382 8.45019397,20.8383614 C7.50908551,21.4537692 6.79433371,22.3965695 6.42190454,23.4631264 C6.11414869,24.223667 6.20223823,25.068587 6.22007915,25.8763801 C6.57355234,28.3380114 8.91963314,30.4069967 11.4240521,30.1831098 C13.0843726,30.1651088 14.6755595,29.193057 15.540844,27.7698561 C15.8207235,27.2714545 16.1340546,26.7618023 16.1507805,26.1756461 C16.296853,23.492378 16.23887,20.8203604 16.2567109,18.1370923 C16.2689765,12.0898948 16.23887,6.05957318 16.2845873,0.0315016801 L16.2834723,0.0303766201 Z" id="Path"></path>
            </g>
        </g>
    </g>
</svg>