<?xml version="1.0" encoding="UTF-8"?>
<svg width="36px" height="35px" viewBox="0 0 36 35" version="1.1" xmlns="http://www.w3.org/2000/svg" xmlns:xlink="http://www.w3.org/1999/xlink">
    <!-- Generator: Sketch 55.2 (78181) - https://sketchapp.com -->
    <title>icon-faq</title>
    <desc>Created with Sketch.</desc>
    <g id="Page-1" stroke="none" stroke-width="1" fill="none" fill-rule="evenodd">
        <g id="iPhone-Home" transform="translate(-37.000000, -555.000000)" stroke="#1C2150">
            <g id="Menu-Item" transform="translate(21.000000, 534.000000)">
                <g id="icon-faq" transform="translate(16.000000, 21.000000)">
                    <path d="M17.0410156,18.8359375 L17.0410156,17.6582031 C17.0410156,17.3124983 17.0703122,17.0019545 17.1289062,16.7265625 C17.1933597,16.4628893 17.319335,16.1992201 17.5068359,15.9355469 L19.1152344,13.703125 C19.414064,13.2812479 19.5634766,12.885744 19.5634766,12.5166016 C19.5517578,12.0126928 19.3876969,11.6171889 19.0712891,11.3300781 C18.7490218,11.0546861 18.3974628,10.9169922 18.0166016,10.9169922 C17.5478492,10.9169922 17.164064,11.0605454 16.8652344,11.3476562 C16.5253889,11.6464859 16.3554688,12.1562464 16.3554688,12.8769531 L14.5185547,12.8769531 L14.5185547,12.5166016 C14.5302735,11.5205028 14.8730435,10.7031282 15.546875,10.0644531 C16.2089877,9.41991865 16.9999954,9.09179693 17.9199219,9.08007812 C18.8574266,9.09179693 19.6630826,9.39648139 20.3369141,9.99414062 C21.0341832,10.6210969 21.3886718,11.4677681 21.4003906,12.5341797 C21.3886718,13.2900428 21.1953144,13.9199194 20.8203125,14.4238281 L19.1855469,16.6738281 C18.9687489,16.9843766 18.8662109,17.3623025 18.8779297,17.8076172 L18.8779297,18.8359375 L17.0410156,18.8359375 Z M17.0410156,22 L17.0410156,20.1630859 L18.8779297,20.1630859 L18.8779297,22 L17.0410156,22 Z" id="?" fill="#1E2354" fill-rule="nonzero"></path>
                    <path d="M21.7083388,33.5544014 C21.7065487,33.5566223 21.70479,33.558845 21.7030628,33.5610688 C21.7073239,33.5555823 21.7132784,33.5455383 21.7206304,33.5310389 Z M21.9283756,32.8677099 C22.0800798,32.1965652 22.1908301,31.2104784 22.249331,29.9314632 L22.3148046,28.5 L26,28.5 C30.6944204,28.5 34.5,24.6944204 34.5,20 L34.5,10 C34.5,5.30557963 30.6944204,1.5 26,1.5 L10,1.5 C5.30557963,1.5 1.5,5.30557963 1.5,10 L1.5,20 C1.5,24.6944204 5.30557963,28.5 10,28.5 L17.7802374,28.5 L18.2291257,29.02225 C19.5615251,30.5724029 20.6465814,31.7258104 21.4714774,32.4735651 C21.6368147,32.6234406 21.7894859,32.7549333 21.9283756,32.8677099 Z" id="Rectangle" stroke-width="3"></path>
                </g>
            </g>
        </g>
    </g>
</svg>