<?xml version="1.0" encoding="UTF-8"?>
<svg width="33px" height="52px" viewBox="0 0 33 52" version="1.1" xmlns="http://www.w3.org/2000/svg" xmlns:xlink="http://www.w3.org/1999/xlink">
    <!-- Generator: Sketch 55.2 (78181) - https://sketchapp.com -->
    <title>icon-scan-qr</title>
    <desc>Created with Sketch.</desc>
    <g id="Page-1" stroke="none" stroke-width="1" fill="none" fill-rule="evenodd">
        <g id="iPhone-Home" transform="translate(-36.000000, -546.000000)">
            <g id="icon-scan-qr" transform="translate(36.000000, 546.000000)">
                <path d="M12.875,30 L8.375,30 C7.75367966,30 7.25,29.5522847 7.25,29 L7.25,25 C7.25,24.4477153 6.74632034,24 6.125,24 C5.50367966,24 5,24.4477153 5,25 L5,29 C5,30.6568542 6.51103897,32 8.375,32 L12.875,32 C13.4963203,32 14,31.5522847 14,31 C14,30.4477153 13.4963203,30 12.875,30 Z M26.875,24 C26.2536797,24 25.75,24.4477153 25.75,25 L25.75,29 C25.75,29.5522847 25.2463203,30 24.625,30 L20.125,30 C19.5036797,30 19,30.4477153 19,31 C19,31.5522847 19.5036797,32 20.125,32 L24.625,32 C26.488961,32 28,30.6568542 28,29 L28,25 C28,24.4477153 27.4963203,24 26.875,24 Z M24.625,10 L20.125,10 C19.5036797,10 19,10.4477153 19,11 C19,11.5522847 19.5036797,12 20.125,12 L24.625,12 C25.2463203,12 25.75,12.4477153 25.75,13 L25.75,17 C25.75,17.5522847 26.2536797,18 26.875,18 C27.4963203,18 28,17.5522847 28,17 L28,13 C28,11.3431458 26.488961,10 24.625,10 Z M6.125,18 C6.74632034,18 7.25,17.5522847 7.25,17 L7.25,13 C7.25,12.4477153 7.75367966,12 8.375,12 L12.875,12 C13.4963203,12 14,11.5522847 14,11 C14,10.4477153 13.4963203,10 12.875,10 L8.375,10 C6.51103897,10 5,11.3431458 5,13 L5,17 C5,17.2652165 5.11852645,17.5195704 5.32950487,17.7071068 C5.5404833,17.8946432 5.82663145,18 6.125,18 Z M14.8333333,14 L10.1666667,14 C9.52233446,14 9,14.4477153 9,15 L9,19 C9,19.5522847 9.52233446,20 10.1666667,20 L14.8333333,20 C15.4776655,20 16,19.5522847 16,19 L16,15 C16,14.4477153 15.4776655,14 14.8333333,14 Z M14,18 L11,18 L11,16 L14,16 L14,18 Z M18.1666667,20 L22.8333333,20 C23.4776655,20 24,19.5522847 24,19 L24,15 C24,14.4477153 23.4776655,14 22.8333333,14 L18.1666667,14 C17.5223345,14 17,14.4477153 17,15 L17,19 C17,19.5522847 17.5223345,20 18.1666667,20 Z M19,16 L22,16 L22,18 L19,18 L19,16 Z M14.8333333,22 L10.1666667,22 C9.52233446,22 9,22.4477153 9,23 L9,27 C9,27.5522847 9.52233446,28 10.1666667,28 L14.8333333,28 C15.4776655,28 16,27.5522847 16,27 L16,23 C16,22.4477153 15.4776655,22 14.8333333,22 Z M14,26 L11,26 L11,24 L14,24 L14,24.2619623 L14,26 Z M18,25 C18.5522847,25 18.5,24.0522847 18.5,23.5 C19.0522847,23.5 20,23.5522847 20,23 C20,22.4477153 19.5522847,22 19,22 L18,22 C17.4477153,22 17,22.4477153 17,23 L17,24 C17,24.5522847 17.4477153,25 18,25 Z M23,22 C22.4477153,22 22,22.4477153 22,23 L22,26 C21.4477153,26 21,26.4477153 21,27 C21,27.5522847 21.4477153,28 22,28 L23,28 C23.5522847,28 24,27.5522847 24,27 L24,23 C24,22.4477153 23.5522847,22 23,22 Z M18,26 C17.4477153,26 17,26.4477153 17,27 C17,27.5522847 17.4477153,28 18,28 C18.5522847,28 19,27.5522847 19,27 C19,26.4477153 18.5522847,26 18,26 Z" id="Shape" fill="#1E2247" fill-rule="nonzero"></path>
                <rect id="Rectangle" stroke="#1E2247" stroke-width="3" x="1.5" y="1.5" width="30" height="49" rx="5"></rect>
                <path d="M1.5,44.5 L1.5,45 C1.5,48.0375661 3.96243388,50.5 7,50.5 L26,50.5 C29.0375661,50.5 31.5,48.0375661 31.5,45 L31.5,44.5 L1.5,44.5 Z" id="Rectangle" stroke="#1E2247" stroke-width="3" fill="#1E2247"></path>
                <circle id="Oval" fill="#FFFFFF" cx="16.5" cy="47.5" r="2.5"></circle>
            </g>
        </g>
    </g>
</svg>