<?xml version="1.0" encoding="UTF-8"?>
<svg width="63px" height="74px" viewBox="0 0 63 74" version="1.1" xmlns="http://www.w3.org/2000/svg" xmlns:xlink="http://www.w3.org/1999/xlink">
    <!-- Generator: Sketch 55.2 (78181) - https://sketchapp.com -->
    <title>verified-user-shield-check</title>
    <desc>Created with Sketch.</desc>
    <g id="Page-1" stroke="none" stroke-width="1" fill="none" fill-rule="evenodd">
        <g id="iPhone-Home" transform="translate(-271.000000, -378.000000)" fill-rule="nonzero">
            <g id="verified-user-shield-check" transform="translate(279.000000, 387.000000)">
                <path d="M23.5,0 L0,10.1818182 L0,25.4545455 C0,39.5818182 10.0266667,52.7927273 23.5,56 C36.9733333,52.7927273 47,39.5818182 47,25.4545455 L47,10.1818182 L23.5,0 Z" id="Shape-Copy-2" stroke="#FFFFFF" stroke-width="16" fill="#FFFFFF"></path>
                <path d="M23.5,0 L0,10.1818182 L0,25.4545455 C0,39.5818182 10.0266667,52.7927273 23.5,56 C36.9733333,52.7927273 47,39.5818182 47,25.4545455 L47,10.1818182 L23.5,0 Z" id="Shape" stroke="#1E2246" stroke-width="6" fill="#96FFC0"></path>
                <polygon id="Path" fill="#1D2043" transform="translate(24.316994, 29.350071) rotate(-10.000000) translate(-24.316994, -29.350071) " points="19.2102772 41.1621319 8.79268806 31.0437549 12.4289057 27.513075 19.1741671 34.039556 36.1689717 17.5380097 39.8412995 21.1299057"></polygon>
            </g>
        </g>
    </g>
</svg>