<?xml version="1.0" encoding="UTF-8"?>
<svg width="28px" height="40px" viewBox="0 0 28 40" version="1.1" xmlns="http://www.w3.org/2000/svg" xmlns:xlink="http://www.w3.org/1999/xlink">
    <!-- Generator: Sketch 55.2 (78181) - https://sketchapp.com -->
    <title>icon-share</title>
    <desc>Created with Sketch.</desc>
    <g id="Page-1" stroke="none" stroke-width="1" fill="none" fill-rule="evenodd">
        <g id="iPhone-Home" transform="translate(-41.000000, -549.000000)">
            <g id="Menu-Item" transform="translate(21.000000, 534.000000)">
                <g id="icon-share" transform="translate(20.566649, 15.000000)">
                    <g id="Group-17" transform="translate(0.433351, 0.000000)">
                        <path d="M16.9910072,13 L21.125,13 C23.8173882,13 26,15.1826118 26,17.875 L26,34.125 C26,36.8173882 23.8173882,39 21.125,39 L4.875,39 C2.18261184,39 0,36.8173882 0,34.125 L0,17.875 C0,15.1826118 2.18261184,13 4.875,13 L9.8383449,13" id="Path" stroke="#1E2247" stroke-width="2"></path>
                        <path d="M14,4.75670756 L14,21 C14,21.5522847 13.5522847,22 13,22 C12.4477153,22 12,21.5522847 12,21 L12,4.71261545 L9.71852989,8.07113418 C9.4089128,8.52691696 8.78894404,8.6463681 8.33214458,8.33825297 L8.30962594,8.32306396 C7.85956483,8.01949391 7.73390511,7.41229147 8.02651258,6.95502717 L12.0655653,0.643108215 C12.2092738,0.26706598 12.5734486,1.06215677e-13 13,1.06137321e-13 C13.4273974,1.0605881e-13 13.7921705,0.268126387 13.9352872,0.64534694 L14.8741891,2.27410746 C15.7889689,3.86102195 16.7037486,5.44793643 17.6185283,7.03485091 C17.8935742,7.5119868 17.7299704,8.12174237 17.25302,8.39710979 C16.7761638,8.67242287 16.1664101,8.50903986 15.891097,8.03218362 L14,4.75670756 Z" id="Combined-Shape" fill="#1E2247"></path>
                    </g>
                </g>
            </g>
        </g>
    </g>
</svg>