<?xml version="1.0" encoding="UTF-8"?>
<svg width="54px" height="54px" viewBox="0 0 54 54" version="1.1" xmlns="http://www.w3.org/2000/svg" xmlns:xlink="http://www.w3.org/1999/xlink">
    <!-- Generator: Sketch 55.2 (78181) - https://sketchapp.com -->
    <title>icon-linkedin</title>
    <desc>Created with Sketch.</desc>
    <g id="Page-1" stroke="none" stroke-width="1" fill="none" fill-rule="evenodd">
        <g id="icon-linkedin">
            <rect id="Rectangle" fill="#D8D8D8" x="2.5" y="3" width="49" height="49" rx="15"></rect>
            <path d="M50.0106122,0 L3.98938776,0 C1.78530612,0 0,1.73038065 0,3.86855802 L0,50.131442 C0,52.2696193 1.78530612,54 3.98938776,54 L50.0106122,54 C52.2146939,54 54,52.2641086 54,50.131442 L54,3.86855802 C54,1.73038065 52.2146939,0 50.0106122,0 Z M16.3708163,45.2048168 L8.21020408,45.2048168 L8.21020408,20.8251862 L16.3708163,20.8251862 L16.3708163,45.2048168 Z M12.2932653,17.4911726 L12.2381633,17.4911726 C9.49959184,17.4911726 7.73081633,15.617512 7.73081633,13.2754363 C7.73081633,10.8837636 9.55469388,9.06521074 12.3483673,9.06521074 C15.1365306,9.06521074 16.8557143,10.8837636 16.9108163,13.2754363 C16.9053061,15.6230228 15.1365306,17.4911726 12.2932653,17.4911726 Z M45.7842857,45.2048168 L37.6291837,45.2048168 L37.6291837,32.1608327 C37.6291837,28.8819267 36.45,26.6445556 33.4965306,26.6445556 C31.2373469,26.6445556 29.8983673,28.1545056 29.3142857,29.6093479 C29.0938776,30.1273599 29.0442857,30.8547811 29.0442857,31.5822023 L29.0442857,45.1993061 L20.8836735,45.1993061 C20.8836735,45.1993061 20.9883673,23.1011328 20.8836735,20.8141647 L29.0387755,20.8141647 L29.0387755,24.2694152 C30.1187755,22.6106746 32.0583673,20.241045 36.3893878,20.241045 C41.7563265,20.241045 45.7842857,23.7238494 45.7842857,31.2184917 L45.7842857,45.2048168 L45.7842857,45.2048168 Z M28.9891837,24.3804368 C29.0191837,24.3518654 29.0491837,24.3161511 29.0891837,24.2804368 L29.0891837,24.3804368 L28.9891837,24.3804368 Z" id="LinkedIn__x28_alt_x29_" fill="#1E2246" fill-rule="nonzero"></path>
        </g>
    </g>
</svg>