<?xml version="1.0" encoding="UTF-8"?>
<svg width="42px" height="41px" viewBox="0 0 42 41" version="1.1" xmlns="http://www.w3.org/2000/svg" xmlns:xlink="http://www.w3.org/1999/xlink">
    <!-- Generator: Sketch 55.2 (78181) - https://sketchapp.com -->
    <title>IconInvestigateProfile</title>
    <desc>Created with Sketch.</desc>
    <g id="Page-1" stroke="none" stroke-width="1" fill="none" fill-rule="evenodd">
        <g id="iPhone-Home" transform="translate(-36.000000, -377.000000)">
            <g id="Menu-Item" transform="translate(22.000000, 359.000000)">
                <g id="IconInvestigateProfile" transform="translate(16.000000, 20.000000)">
                    <g id="Group-20">
                        <path d="M39.0760864,37.7981824 C40.1414728,36.5789039 40.0253648,34.7288754 38.8158944,33.6523672 L26.8478272,23 L23,27.4036352 L34.9680672,38.0560023 C36.1633184,39.1198546 37.9946836,39.0133346 39.0585359,37.8180834 C39.0644164,37.8114766 39.0702666,37.8048428 39.0760864,37.7981824 Z" id="Rectangle" fill="#1E2354"></path>
                        <ellipse id="Oval" stroke="#1E2354" stroke-width="3" cx="14.5" cy="15" rx="14.5" ry="15"></ellipse>
                    </g>
                    <g id="Group-22" transform="translate(8.000000, 8.000000)" fill="#1E2354">
                        <circle id="Oval" cx="6.5" cy="3.5" r="3.5"></circle>
                        <path d="M13,11.5855703 C13,8.500745 10.0898509,6 6.5,6 C2.91014913,6 0,8.500745 0,11.5855703 L0,13 L13,13" id="Shape"></path>
                    </g>
                </g>
            </g>
        </g>
    </g>
</svg>