<?xml version="1.0" encoding="UTF-8"?>
<svg width="63px" height="74px" viewBox="0 0 63 74" version="1.1" xmlns="http://www.w3.org/2000/svg" xmlns:xlink="http://www.w3.org/1999/xlink">
    <!-- Generator: Sketch 55.2 (78181) - https://sketchapp.com -->
    <title>verified-user-shield-check</title>
    <desc>Created with Sketch.</desc>
    <g id="Page-1" stroke="none" stroke-width="1" fill="none" fill-rule="evenodd">
        <g id="iPhone-Home" transform="translate(-261.000000, -382.000000)">
            <g id="verified-user-shield-check" transform="translate(267.000000, 391.000000)">
                <path d="M25.5,0 L2,10.1818182 L2,25.4545455 C2,39.5818182 12.0266667,52.7927273 25.5,56 C38.9733333,52.7927273 49,39.5818182 49,25.4545455 L49,10.1818182 L25.5,0 Z" id="Shape-Copy-2" stroke="#FFFFFF" stroke-width="16" fill="#FFFFFF" fill-rule="nonzero"></path>
                <path d="M25.5,0 L2,10.1818182 L2,25.4545455 C2,39.5818182 12.0266667,52.7927273 25.5,56 C38.9733333,52.7927273 49,39.5818182 49,25.4545455 L49,10.1818182 L25.5,0 Z" id="Shape" stroke="#1E2246" stroke-width="6" fill="#FF7070" fill-rule="nonzero"></path>
                <g id="exclaimation" transform="translate(0.500000, 5.000000)">
                    <polygon id="Path" fill="#FFFFFF" opacity="0" points="0.5 0 48.5 0 48.5 47 0.5 47"></polygon>
                    <polygon id="Shape" fill="#1E2246" fill-rule="nonzero" transform="translate(24.985842, 20.543760) rotate(-45.000000) translate(-24.985842, -20.543760) " points="19.4127606 28.5838187 16.8405169 26.011575 29.143476 12.5037007 33.1311672 16.491392"></polygon>
                    <circle id="Oval" fill="#1E2246" cx="24.5" cy="35" r="3"></circle>
                </g>
            </g>
        </g>
    </g>
</svg>