<?xml version="1.0" encoding="UTF-8"?>
<svg width="890px" height="757px" viewBox="0 0 890 757" version="1.1" xmlns="http://www.w3.org/2000/svg" xmlns:xlink="http://www.w3.org/1999/xlink">
    <!-- Generator: Sketch 55.2 (78181) - https://sketchapp.com -->
    <title>logo copy</title>
    <desc>Created with Sketch.</desc>
    <defs>
        <linearGradient x1="50%" y1="0%" x2="50%" y2="100%" id="linearGradient-1">
            <stop stop-color="#8DBEF2" offset="0%"></stop>
            <stop stop-color="#50C2E5" offset="100%"></stop>
        </linearGradient>
        <filter x="-2.3%" y="-2.2%" width="104.6%" height="104.4%" filterUnits="objectBoundingBox" id="filter-2">
            <feOffset dx="0" dy="2" in="SourceAlpha" result="shadowOffsetOuter1"></feOffset>
            <feGaussianBlur stdDeviation="2" in="shadowOffsetOuter1" result="shadowBlurOuter1"></feGaussianBlur>
            <feColorMatrix values="0 0 0 0 1   0 0 0 0 1   0 0 0 0 1  0 0 0 0.158107517 0" type="matrix" in="shadowBlurOuter1" result="shadowMatrixOuter1"></feColorMatrix>
            <feMerge>
                <feMergeNode in="shadowMatrixOuter1"></feMergeNode>
                <feMergeNode in="SourceGraphic"></feMergeNode>
            </feMerge>
        </filter>
    </defs>
    <g id="Page-1" stroke="none" stroke-width="1" fill="none" fill-rule="evenodd">
        <g id="Icon" transform="translate(-65.000000, -136.000000)" fill-rule="nonzero">
            <g id="logo-copy" transform="translate(64.528125, 135.446875)">
                <g id="hexagon-svgrepo-com-(1)" transform="translate(0.471875, 0.553125)" fill="url(#linearGradient-1)">
                    <polygon id="Path" points="222.881781 757 0.539013693 378.5 222.881781 0 667.567316 0 889.910083 378.5 667.567316 757"></polygon>
                </g>
                <g id="fingerprint" filter="url(#filter-2)" transform="translate(185.471875, 119.553125)" fill="#EDEDED">
                    <path d="M209.278159,543.073681 C203.026839,537.525181 196.15465,532.51562 190.624833,526.346058 C145.061834,475.384723 121.602752,415.8517 121.24166,348.082329 C120.98069,304.746545 138.038181,268.278376 171.14971,239.555523 C244.91836,175.663258 361.690976,200.972663 401.336116,289.326061 C409.414221,307.047726 413.676717,326.211693 413.858065,345.622032 C413.927452,355.550476 407.265063,362.803047 398.004921,362.989537 C388.412172,363.176027 381.437643,356.169827 381.137444,346.036073 C379.462465,289.464646 339.848027,245.331575 282.977217,236.681185 C236.589521,229.616814 188.066312,254.531169 166.162982,296.342527 C155.246113,317.174636 152.527087,339.2848 154.12241,362.270953 C158.283078,420.623444 181.026455,470.907256 222.352203,513.12068 C233.901368,524.92942 232.164984,535.752673 217.335795,543.113032 L209.278159,543.073681 Z" id="Path"></path>
                    <path d="M279.732313,0.412237615 C290.335031,1.34496479 300.977531,2.03517988 311.549115,3.26639032 C360.842241,8.85003241 408.208542,24.2416306 450.332293,48.3637481 C472.482115,61.045934 493.033745,75.932392 511.615311,92.7522909 C517.293732,97.8729418 518.625558,104.476676 515.451661,110.660541 C512.490511,116.443511 505.857326,120.165085 498.784811,118.821959 C494.689014,118.014817 490.908012,116.203007 487.848272,113.580001 C451.086418,80.5335989 408.229298,56.8329722 358.974225,43.2057971 C311.419392,29.8794551 261.072913,27.192877 212.151662,35.3708363 C148.193057,45.9199448 93.2797998,72.3441252 46.9642568,114.01852 C39.5568832,120.678042 28.9242425,120.808755 22.4429722,114.522071 C15.9616501,108.23555 16.5822983,98.9082621 23.8369269,92.4258342 C79.7880575,42.3850334 146.443004,12.397788 224.025668,3.210424 C234.424288,1.96989178 244.904201,1.34496479 255.313199,0.412237615 L279.732313,0.412237615 Z" id="Path"></path>
                    <path d="M278.875179,153.046836 C347.984417,155.69857 410.523154,188.106155 452.904017,253.230808 C473.247734,284.470872 482.534668,318.980128 482.709677,355.553167 C482.963669,398.307493 446.283147,433.019607 400.796797,433.579561 C379.001074,433.849479 357.976512,425.961505 342.327499,411.640767 C326.678485,397.320029 317.676395,377.733378 317.292551,357.164292 C316.792339,331.813803 299.555845,312.8089 273.930369,309.387145 C245.128195,305.529499 218.022923,326.925103 217.899607,354.609292 C217.715501,398.307493 233.123092,436.761574 263.825379,469.582586 C281.452664,488.451692 303.321335,503.367591 327.836964,513.243904 C335.755261,516.47286 339.687488,522.461349 339.07438,529.345094 C338.513377,535.960597 333.895095,541.977587 326.742749,542.94158 C322.079308,543.461298 317.351604,542.794047 313.051165,541.013595 C283.219039,528.89076 256.813718,510.338514 235.954156,486.842244 C202.236699,449.035295 184.979363,405.345477 184.868204,355.861644 C184.776151,322.007903 208.029091,291.865952 241.593706,281.674456 C276.403642,271.068861 313.766747,282.532828 334.978889,310.515436 C345.266248,324.090127 350.150268,339.34468 350.426428,356.113121 C350.732113,375.002345 360.296943,389.17555 378.012807,397.477621 C395.53588,405.674073 413.128428,404.295982 429.159548,393.390293 C442.585394,384.268409 449.808951,371.530295 449.51195,355.871703 C448.316997,294.161093 420.965093,244.985738 365.84444,211.951809 C303.519335,174.55879 238.128692,173.748869 174.466387,208.808355 C121.970635,237.734838 92.800596,282.504327 86.4557114,339.943194 C85.8938406,345.043133 85.7814664,350.193368 85.5464707,355.321809 C85.13779,364.597932 78.0776709,371.329114 68.7391526,371.260377 C59.400808,371.193317 52.1772513,364.232453 52.3917522,354.964712 C53.6177942,294.556749 77.6486691,243.664649 125.699824,203.706739 C166.568585,169.679815 214.936542,153.114399 278.875179,153.046836 Z" id="Path"></path>
                    <path d="M257.875571,68.2498369 C351.189742,70.9808579 426.288252,109.622124 482.847511,187.138564 C496.081964,205.27612 506.540091,225.11836 515.247739,246.006785 C519.550786,256.30353 516.321779,266.021535 507.350786,270.204413 C498.755017,274.225913 489.560265,270.139491 485.408685,260.228572 C462.495816,205.498712 426.682411,162.65509 376.512317,134.767625 C301.301928,93.0113657 224.552769,91.6244307 148.10775,131.193721 C94.7580482,158.814261 56.869541,202.671791 32.6803887,259.86686 C28.3062546,270.224818 19.2746739,274.31124 10.4859055,270.16175 C1.52509266,265.893544 -1.74535269,256.2924 2.76036856,245.954847 C43.8688291,151.794445 112.598656,94.2595516 208.949918,73.3494245 C214.242667,72.2275598 219.590495,71.419179 224.967583,70.9276212 C236.217471,69.8608481 247.49662,69.0819608 257.875571,68.2498369 Z" id="Path"></path>
                    <path d="M390.519629,492.234832 C331.978947,491.016875 275.46793,452.15767 253.49012,398.303316 C245.983607,380.138222 241.994701,360.740575 241.731061,341.120156 C241.592018,330.501939 248.614588,322.889325 258.502888,322.646467 C268.392993,322.405434 275.733376,329.924921 276.042159,340.448186 C277.889444,402.630947 322.121345,450.60374 384.464942,457.977147 C388.141454,458.408084 391.90103,458.333218 395.58657,458.459212 C406.347048,458.837195 413.952876,465.958613 413.858065,475.609048 C413.761467,485.261308 406.070768,492.245776 395.279592,492.234832 L390.519629,492.234832 Z" id="Path"></path>
                </g>
            </g>
        </g>
    </g>
</svg>