<svg width="361px" height="461px" viewBox="0 0 361 461" version="1.1" xmlns="http://www.w3.org/2000/svg" xmlns:xlink="http://www.w3.org/1999/xlink">
    <title>shield</title>
    <desc>Created with Sketch.</desc>
    <defs>
        <linearGradient x1="66.7422876%" y1="87.4210408%" x2="32.8053925%" y2="9.44530602%" id="linearGradient-1">
            <stop stop-color="#74BEE4" offset="0%"></stop>
            <stop stop-color="#21A7FF" offset="30.0441193%"></stop>
            <stop stop-color="#1EA5FF" offset="54.7610394%"></stop>
            <stop stop-color="#217EFF" offset="81.0365617%"></stop>
            <stop stop-color="#235FE7" offset="100%"></stop>
        </linearGradient>
    </defs>
    <g id="Page-1" stroke="none" stroke-width="1" fill="none" fill-rule="evenodd">
        <g id="shield">
            <path d="M3.09099379,72.1113524 C80.8336394,39.9014458 139.003609,16.0343184 177.600902,0.509970324 C179.340547,-0.189738024 179.701215,-0.149951247 181.596749,0.509970324 C204.754063,8.57208203 263.216662,32.4392094 356.984549,72.1113524 C361.724076,176.795611 361.724076,239.230974 356.984549,259.417443 C349.875258,289.697147 341.71089,315.1465 330.369153,335.082801 C300.918422,386.850762 250.807962,428.674831 180.037771,460.555008 C101.544395,423.960633 51.580564,382.136564 30.1462796,335.082801 C20.9730719,314.945252 7.71608969,294.428613 3.09099379,259.417443 C-1.03033126,228.219731 -1.03033126,165.784367 3.09099379,72.1113524 Z" id="Rectangle" fill="url(#linearGradient-1)"></path>
            <g id="Group" transform="translate(101.000000, 99.000000)" stroke="#FFFFFF">
                <path d="M122.889135,5.85367477 C88.2846328,2.5921734 60.0014908,8.67620229 38.0397096,24.1057614 C21.6349917,35.6311273 5.27959742,60.8821061 3.02971705,87.3442307 C-4.09041892,171.088206 27.6791449,180.414688 38.0397096,184.921526 C48.4002742,189.428364 72.1173575,191.021246 90.8750969,176.392244 C109.632836,161.763242 109.632836,140.553163 108.600272,121.947272" id="Line" stroke-width="12" stroke-linecap="square"></path>
                <path d="M55.6191112,129.106888 C55.6191112,99.3660086 59.5570692,84.3978416 82.1834541,68.7962077 C94.3615187,60.3990331 117.921192,60.6652968 133.532303,68.7962077 C167.788289,86.6381392 161.778835,125.922674 161.778835,150.584219 C161.778835,175.245763 154.726355,212.028525 121.189284,231.009147 C87.6522139,249.989769 67.4040067,247.469764 42.3612935,245.17231" id="Line" stroke-width="12" stroke-linecap="square"></path>
                <path d="M155.901587,50.2249791 C148.570139,41.958414 120.530635,32.178468 97.165044,35.1361625 C68.0616943,38.8201616 51.6356448,46.8047728 39.3926488,68.8403008 C28.4306501,88.5702287 28.4306501,116.167453 29.7437133,128.324664 C31.4926189,144.517194 35.4574342,161.974721 58.6308433,161.974721 C82.5107465,161.974721 82.5107465,138.69161 82.1834541,116.167453 C81.9299727,98.7229454 94.5338534,89.9527088 109.044387,89.9527088 C122.889135,89.9527088 134.794774,100.047353 134.794774,116.167453 C134.794774,141.881433 141.247289,181.731354 106.452191,204.634056 C71.6570928,227.536757 21.1204667,215.000973 9.1199062,201.051604" id="Line" stroke-width="12" stroke-linecap="square"></path>
                <circle id="Oval" fill="#FFFFFF" cx="36.5" cy="244.5" r="5.5"></circle>
                <circle id="Oval" fill="#FFFFFF" cx="5.5" cy="196.5" r="5.5"></circle>
                <circle id="Oval" fill="#FFFFFF" cx="108.2" cy="115.5" r="5.5"></circle>
                <circle id="Oval" fill="#FFFFFF" cx="55.7" cy="135.5" r="5.5"></circle>
                <circle id="Oval" fill="#FFFFFF" cx="159.5" cy="54.5" r="5.5"></circle>
                <circle id="Oval" fill="#FFFFFF" cx="128.5" cy="6.4" r="5.5"></circle>
            </g>
        </g>
    </g>
</svg>
