<?xml version="1.0" encoding="UTF-8"?>
<svg width="549px" height="497px" viewBox="0 0 549 497" version="1.1" xmlns="http://www.w3.org/2000/svg" xmlns:xlink="http://www.w3.org/1999/xlink">
    <!-- Generator: Sketch 55.2 (78181) - https://sketchapp.com -->
    <title>hero-hex-bg</title>
    <desc>Created with Sketch.</desc>
    <g id="Page-1" stroke="none" stroke-width="1" fill="none" fill-rule="evenodd" fill-opacity="0.600934222" opacity="0.162388393">
        <g id="PAges" transform="translate(-617.000000, -89.000000)" fill="#BABABA" fill-rule="nonzero">
            <g id="landing">
                <g id="Group-6" transform="translate(616.766169, 89.158375)">
                    <g id="hero-hex-bg">
                        <g id="fb" transform="translate(306.285240, 58.739635)">
                            <polygon id="Path" points="23.8629768 81.8159204 0 40.9079602 23.8629768 0 71.5889303 0 95.4519071 40.9079602 71.5889303 81.8159204"></polygon>
                        </g>
                        <g id="fb" transform="translate(305.236318, 145.800166)">
                            <polygon id="Path" points="23.8629768 81.8159204 0 40.9079602 23.8629768 0 71.5889303 0 95.4519071 40.9079602 71.5889303 81.8159204"></polygon>
                        </g>
                        <g id="fb" transform="translate(224.469320, 197.197347)">
                            <polygon id="Path" points="23.8629768 81.8159204 0 40.9079602 23.8629768 0 71.5889303 0 95.4519071 40.9079602 71.5889303 81.8159204"></polygon>
                        </g>
                        <g id="fb" transform="translate(306.285240, 242.300995)">
                            <polygon id="Path" points="23.8629768 81.8159204 0 40.9079602 23.8629768 0 71.5889303 0 95.4519071 40.9079602 71.5889303 81.8159204"></polygon>
                        </g>
                        <g id="fb" transform="translate(222.371476, 289.502488)">
                            <polygon id="Path" points="23.8629768 81.8159204 0 40.9079602 23.8629768 0 71.5889303 0 95.4519071 40.9079602 71.5889303 81.8159204"></polygon>
                        </g>
                        <g id="fb" transform="translate(141.604478, 243.349917)">
                            <polygon id="Path" points="23.8629768 81.8159204 0 40.9079602 23.8629768 0 71.5889303 0 95.4519071 40.9079602 71.5889303 81.8159204"></polygon>
                        </g>
                        <g id="fb" transform="translate(143.702322, 148.946932)">
                            <polygon id="Path" points="23.8629768 81.8159204 0 40.9079602 23.8629768 0 71.5889303 0 95.4519071 40.9079602 71.5889303 81.8159204"></polygon>
                        </g>
                        <g id="fb" transform="translate(143.702322, 54.543947)">
                            <polygon id="Path" points="23.8629768 81.8159204 0 40.9079602 23.8629768 0 71.5889303 0 95.4519071 40.9079602 71.5889303 81.8159204"></polygon>
                        </g>
                        <g id="fb" transform="translate(141.604478, 337.752902)">
                            <polygon id="Path" points="23.8629768 81.8159204 0 40.9079602 23.8629768 0 71.5889303 0 95.4519071 40.9079602 71.5889303 81.8159204"></polygon>
                        </g>
                        <g id="fb" transform="translate(305.236318, 330.410448)">
                            <polygon id="Path" points="23.8629768 81.8159204 0 40.9079602 23.8629768 0 71.5889303 0 95.4519071 40.9079602 71.5889303 81.8159204"></polygon>
                        </g>
                        <g id="fb" transform="translate(387.052239, 197.197347)">
                            <polygon id="Path" points="23.8629768 81.8159204 0 40.9079602 23.8629768 0 71.5889303 0 95.4519071 40.9079602 71.5889303 81.8159204"></polygon>
                        </g>
                        <g id="fb" transform="translate(387.052239, 103.843284)">
                            <polygon id="Path" points="23.8629768 81.8159204 0 40.9079602 23.8629768 0 71.5889303 0 95.4519071 40.9079602 71.5889303 81.8159204"></polygon>
                        </g>
                        <g id="fb" transform="translate(324.116915, 0.000000)">
                            <polygon id="Path" points="11.2759121 37.761194 0 18.880597 11.2759121 0 33.8277363 0 45.1036484 18.880597 33.8277363 37.761194"></polygon>
                        </g>
                        <g id="fb" transform="translate(237.056385, 18.880597)">
                            <polygon id="Path" points="20.1917496 69.2288557 0 34.6144279 20.1917496 0 60.5752488 0 80.7669983 34.6144279 60.5752488 69.2288557"></polygon>
                        </g>
                        <g id="fb" transform="translate(394.394693, 291.600332)">
                            <polygon id="Path" points="20.1917496 69.2288557 0 34.6144279 20.1917496 0 60.5752488 0 80.7669983 34.6144279 60.5752488 69.2288557"></polygon>
                        </g>
                        <g id="fb" transform="translate(306.285240, 426.911277)">
                            <polygon id="Path" points="20.1917496 69.2288557 0 34.6144279 20.1917496 0 60.5752488 0 80.7669983 34.6144279 60.5752488 69.2288557"></polygon>
                        </g>
                        <g id="fb" transform="translate(467.819237, 158.387231)">
                            <polygon id="Path" points="20.1917496 69.2288557 0 34.6144279 20.1917496 0 60.5752488 0 80.7669983 34.6144279 60.5752488 69.2288557"></polygon>
                        </g>
                        <g id="fb" transform="translate(76.571310, 111.185738)">
                            <polygon id="Path" points="20.1917496 69.2288557 0 34.6144279 20.1917496 0 60.5752488 0 80.7669983 34.6144279 60.5752488 69.2288557"></polygon>
                        </g>
                        <g id="fb" transform="translate(76.571310, 199.295191)">
                            <polygon id="Path" points="20.1917496 69.2288557 0 34.6144279 20.1917496 0 60.5752488 0 80.7669983 34.6144279 60.5752488 69.2288557"></polygon>
                        </g>
                        <g id="fb" transform="translate(70.277778, 291.600332)">
                            <polygon id="Path" points="20.1917496 69.2288557 0 34.6144279 20.1917496 0 60.5752488 0 80.7669983 34.6144279 60.5752488 69.2288557"></polygon>
                        </g>
                        <g id="fb" transform="translate(151.044776, 426.911277)">
                            <polygon id="Path" points="20.1917496 69.2288557 0 34.6144279 20.1917496 0 60.5752488 0 80.7669983 34.6144279 60.5752488 69.2288557"></polygon>
                        </g>
                        <g id="fb" transform="translate(70.277778, 395.443615)">
                            <polygon id="Path" points="16.3266998 53.4950249 0.855099502 26.7475124 16.3266998 0 47.2699005 0 62.7415008 26.7475124 47.2699005 53.4950249"></polygon>
                        </g>
                        <g id="fb" transform="translate(0.000000, 244.398839)">
                            <polygon id="Path" points="16.3266998 53.4950249 0.855099502 26.7475124 16.3266998 0 47.2699005 0 62.7415008 26.7475124 47.2699005 53.4950249"></polygon>
                        </g>
                        <g id="fb" transform="translate(68.179934, 18.880597)">
                            <polygon id="Path" points="16.3266998 53.4950249 0.855099502 26.7475124 16.3266998 0 47.2699005 0 62.7415008 26.7475124 47.2699005 53.4950249"></polygon>
                        </g>
                        <g id="fb" transform="translate(480.406302, 73.424544)">
                            <polygon id="Path" points="16.3266998 53.4950249 0.855099502 26.7475124 16.3266998 0 47.2699005 0 62.7415008 26.7475124 47.2699005 53.4950249"></polygon>
                        </g>
                        <g id="fb" transform="translate(400.688226, 400.688226)">
                            <polygon id="Path" points="16.3266998 53.4950249 0.855099502 26.7475124 16.3266998 0 47.2699005 0 62.7415008 26.7475124 47.2699005 53.4950249"></polygon>
                        </g>
                        <g id="fb" transform="translate(222.371476, 386.003317)">
                            <polygon id="Path" points="23.8629768 81.8159204 0 40.9079602 23.8629768 0 71.5889303 0 95.4519071 40.9079602 71.5889303 81.8159204"></polygon>
                        </g>
                        <g id="fb" transform="translate(224.469320, 103.843284)">
                            <polygon id="Path" points="23.8629768 81.8159204 0 40.9079602 23.8629768 0 71.5889303 0 95.4519071 40.9079602 71.5889303 81.8159204"></polygon>
                        </g>
                    </g>
                </g>
            </g>
        </g>
    </g>
</svg>