<?xml version="1.0" encoding="UTF-8"?>
<svg width="264px" height="297px" viewBox="0 0 264 297" version="1.1" xmlns="http://www.w3.org/2000/svg" xmlns:xlink="http://www.w3.org/1999/xlink">
    <!-- Generator: Sketch 55.2 (78181) - https://sketchapp.com -->
    <title>No Fraudsters</title>
    <desc>Created with Sketch.</desc>
    <g id="Page-1" stroke="none" stroke-width="1" fill="none" fill-rule="evenodd">
        <g id="PAges" transform="translate(-217.000000, -2105.000000)">
            <g id="No-Fraudsters" transform="translate(217.126866, 2105.186567)">
                <ellipse id="bg" fill="#1E2246" cx="131.883312" cy="164.237404" rx="129.017413" ry="129.460772"></ellipse>
                <ellipse id="Oval" stroke="#DFE1F5" stroke-width="5" cx="131.883312" cy="164.237404" rx="129.017413" ry="129.460772"></ellipse>
                <g id="Path-7">
                    <path d="M60.5108747,115.361171 C60.7151525,123.082664 62.3231378,132.154045 65.3348308,142.575314 L12.1439986,174.845758 L12.1439986,188.478099 C30.297511,167.149668 45.7527769,156.485453 58.5097962,156.485453 C77.6453252,156.485453 84.9417258,168.185488 90.1686113,174.845758 C93.6532016,179.285938 85.3752747,166.821348 65.3348308,137.451986 C58.5506314,121.603283 59.2314738,109.1629 67.377358,100.130835 C79.5961842,86.582738 98.8499313,70.1933369 133.219008,70.1933369 C167.588084,70.1933369 190.887576,91.2767129 197.217194,106.016474 C203.546813,120.756235 196.990546,137.451986 174.822706,168.579009 C154.357315,186.960658 137.86361,239.194593 142.383102,256.05857 C146.748932,236.324282 153.179265,192.448658 189.86512,168.579009 C193.827576,180.513833 189.86512,187.822139 202.011472,192.448658 C219.431401,183.9465 240.018992,187.849073 253.308106,195.905249 C256.269396,189.656815 257.495328,180.216867 256.985904,167.585407 C235.375946,153.007701 217.051136,145.718848 202.011472,145.718848 C204.976258,128.012601 206.304465,117.893375 205.996093,115.361171 C195.514181,71.9450342 186.603509,42.6176861 179.264076,27.3791268 C160.830821,6.51424964 148.158777,0 130.543875,0 C112.928974,0 98.4788108,10.0533851 83.5179945,27.3791268 C79.6647156,36.200551 77.6207939,47.9722832 74.1586941,58.9285354 C66.6111451,82.8137077 61.7414145,106.735025 60.5108747,115.361171 Z" fill="#5B6089"></path>
                    <path d="M130.543875,4.54747351e-13 C121.582228,21.1277292 110.239977,37.2504014 133.322984,65.2746036 C85.7951202,62.4276909 63.2520428,105.25125 63.2520428,118.090944 C63.2520428,126.650739 75.1149655,148.177558 98.8408109,182.671399 C101.287147,181.952242 101.287147,182.938624 98.8408109,185.630545 C90.7810548,179.518567 74.3703588,165.14737 67.1859529,163.785194 C45.8481511,164.324434 24.6537528,184.520957 5.02332763,201.073964 C-2.69114816,193.21824 -0.317591178,183.613518 12.1439986,172.259798 C28.8742074,159.367187 45.9102222,149.472359 63.2520428,142.575314 C63.2520428,133.206064 60.4476963,133.206064 58.3047888,115.297263 C61.2225985,90.0515228 74.1238815,55.6974603 83.0178502,27.6311033 C92.3863013,14.3579137 110.239977,4.54747351e-13 130.543875,4.54747351e-13 Z" id="Path-8" fill="#3D426B"></path>
                </g>
                <path d="M28.6602363,86.5605361 C12.463491,108.197657 2.86589951,135.09286 2.86589951,164.237404 C2.86589951,235.736614 60.6289628,293.698176 131.883312,293.698176 L131.883312,293.698176 C203.137662,293.698176 260.900725,235.736614 260.900725,164.237404 C260.900725,136.348149 252.112088,110.518644 237.16226,89.3853658" id="Path" stroke="#DFE1F5" stroke-width="5"></path>
                <polygon id="Rectangle" fill="#DFE1F5" transform="translate(133.101284, 165.444070) rotate(-45.000000) translate(-133.101284, -165.444070) " points="3.86759874 162.513576 262.345783 162.070217 262.33497 168.374563 3.85678511 168.817922"></polygon>
            </g>
        </g>
    </g>
</svg>