<?xml version="1.0" encoding="UTF-8"?>
<svg width="23px" height="14px" viewBox="0 0 23 14" version="1.1" xmlns="http://www.w3.org/2000/svg" xmlns:xlink="http://www.w3.org/1999/xlink">
    <!-- Generator: Sketch 55.2 (78181) - https://sketchapp.com -->
    <title>eye-12109</title>
    <desc>Created with Sketch.</desc>
    <g id="Page-1" stroke="none" stroke-width="1" fill="none" fill-rule="evenodd">
        <g id="eye-12109" fill="#FFFFFF" fill-rule="nonzero">
            <path d="M11.3749052,14 C7.61638375,14 3.8485096,11.8046597 0.17517354,7.4749058 C-0.0583911801,7.19949759 -0.0583911801,6.80025475 0.17517354,6.52484653 C3.8485096,2.19534028 7.61638375,0 11.3749052,0 C15.1331739,0 18.9013008,2.19534028 22.5746369,6.52484653 C22.8084544,6.80025475 22.8084544,7.19949759 22.5746369,7.4749058 C18.9013008,11.8044121 15.1331739,14 11.3749052,14 Z M1.7527465,6.99987617 C4.987264,10.6594371 8.22228704,12.5139845 11.3749052,12.5139845 C14.5277762,12.5139845 17.7625464,10.6596848 20.9970639,6.99987617 C17.7625464,3.34031525 14.5277762,1.48601553 11.3749052,1.48601553 C8.22228704,1.48601553 4.987264,3.34031525 1.7527465,6.99987617 Z" id="Shape"></path>
            <path d="M11.375,11.375 C8.96257353,11.375 7,9.41242647 7,7 C7,4.58757353 8.96257353,2.625 11.375,2.625 C13.7874265,2.625 15.75,4.58757353 15.75,7 C15.75,9.41242647 13.7874265,11.375 11.375,11.375 Z M11.375,4.16911765 C9.81415441,4.16911765 8.54411765,5.43915441 8.54411765,7 C8.54411765,8.56084559 9.81415441,9.83088235 11.375,9.83088235 C12.9358456,9.83088235 14.2058824,8.56084559 14.2058824,7 C14.2058824,5.43915441 12.9358456,4.16911765 11.375,4.16911765 Z" id="Shape"></path>
        </g>
    </g>
</svg>