<?xml version="1.0" encoding="UTF-8"?>
<svg width="147px" height="43px" viewBox="0 0 147 43" version="1.1" xmlns="http://www.w3.org/2000/svg" xmlns:xlink="http://www.w3.org/1999/xlink">
    <!-- Generator: Sketch 55.2 (78181) - https://sketchapp.com -->
    <title>button-android</title>
    <desc>Created with Sketch.</desc>
    <defs>
        <linearGradient x1="61.1696%" y1="4.72%" x2="26.262208%" y2="71.8496%" id="linearGradient-1">
            <stop stop-color="#00A0FF" offset="0%"></stop>
            <stop stop-color="#00A1FF" offset="0.657445%"></stop>
            <stop stop-color="#00BEFF" offset="26.01%"></stop>
            <stop stop-color="#00D2FF" offset="51.22%"></stop>
            <stop stop-color="#00DFFF" offset="76.04%"></stop>
            <stop stop-color="#00E3FF" offset="100%"></stop>
        </linearGradient>
        <linearGradient x1="107.728079%" y1="50%" x2="-130.665025%" y2="50%" id="linearGradient-2">
            <stop stop-color="#FFE000" offset="0%"></stop>
            <stop stop-color="#FFBD00" offset="40.87%"></stop>
            <stop stop-color="#FFA500" offset="77.54%"></stop>
            <stop stop-color="#FF9C00" offset="100%"></stop>
        </linearGradient>
        <linearGradient x1="86.3203593%" y1="30.7761474%" x2="-49.9568862%" y2="135.950713%" id="linearGradient-3">
            <stop stop-color="#FF3A44" offset="0%"></stop>
            <stop stop-color="#C31162" offset="100%"></stop>
        </linearGradient>
        <linearGradient x1="-18.7922156%" y1="-11.5186224%" x2="42.0616766%" y2="35.2280955%" id="linearGradient-4">
            <stop stop-color="#32A071" offset="0%"></stop>
            <stop stop-color="#2DA771" offset="6.85%"></stop>
            <stop stop-color="#15CF74" offset="47.62%"></stop>
            <stop stop-color="#06E775" offset="80.09%"></stop>
            <stop stop-color="#00F076" offset="100%"></stop>
        </linearGradient>
    </defs>
    <g id="Page-1" stroke="none" stroke-width="1" fill="none" fill-rule="evenodd">
        <g id="PAges" transform="translate(-276.000000, -1817.000000)" fill-rule="nonzero">
            <g id="button-android" transform="translate(276.915423, 1817.781924)">
                <path d="M140.592593,41.9568823 L5.40740741,41.9568823 C2.37925926,41.9568823 0,39.6492537 0,36.712272 L0,5.24461028 C0,2.30762852 2.37925926,0 5.40740741,0 L140.592593,0 C143.620741,0 146,2.30762852 146,5.24461028 L146,36.712272 C146,39.5443615 143.620741,41.9568823 140.592593,41.9568823 Z" id="Path" fill="#000000"></path>
                <path d="M71.431592,18.6708126 C68.9141791,18.6708126 66.9212272,20.5588723 66.9212272,23.1811774 C66.9212272,25.6985904 68.9141791,27.6915423 71.431592,27.6915423 C73.949005,27.6915423 75.9419569,25.8034826 75.9419569,23.1811774 C75.9419569,20.4539801 73.949005,18.6708126 71.431592,18.6708126 Z M71.431592,25.8034826 C70.0679934,25.8034826 68.9141791,24.6496683 68.9141791,23.0762852 C68.9141791,21.5029022 70.0679934,20.3490879 71.431592,20.3490879 C72.7951907,20.3490879 73.949005,21.39801 73.949005,23.0762852 C73.949005,24.6496683 72.7951907,25.8034826 71.431592,25.8034826 Z M61.6766169,18.6708126 C59.159204,18.6708126 57.1662521,20.5588723 57.1662521,23.1811774 C57.1662521,25.6985904 59.159204,27.6915423 61.6766169,27.6915423 C64.1940299,27.6915423 66.1869818,25.8034826 66.1869818,23.1811774 C66.1869818,20.4539801 64.1940299,18.6708126 61.6766169,18.6708126 Z M61.6766169,25.8034826 C60.3130182,25.8034826 59.159204,24.6496683 59.159204,23.0762852 C59.159204,21.5029022 60.3130182,20.3490879 61.6766169,20.3490879 C63.0402156,20.3490879 64.1940299,21.39801 64.1940299,23.0762852 C64.1940299,24.6496683 63.0402156,25.8034826 61.6766169,25.8034826 Z M50.0335821,20.0344113 L50.0335821,21.922471 L54.5439469,21.922471 C54.4390547,22.971393 54.0194859,23.8105307 53.4950249,24.3349917 C52.8656716,24.9643449 51.8167496,25.6985904 50.0335821,25.6985904 C47.2014925,25.6985904 45.1036484,23.4958541 45.1036484,20.6637645 C45.1036484,17.831675 47.3063847,15.6289386 50.0335821,15.6289386 C51.502073,15.6289386 52.6558872,16.2582919 53.4950249,16.9925373 L54.8586235,15.6289386 C53.7048093,14.5800166 52.2363184,13.7408789 50.1384743,13.7408789 C46.3623549,13.7408789 43.1106965,16.8876451 43.1106965,20.6637645 C43.1106965,24.4398839 46.3623549,27.5866501 50.1384743,27.5866501 C52.2363184,27.5866501 53.7048093,26.9572968 54.9635158,25.5936982 C56.2222222,24.3349917 56.641791,22.5518242 56.641791,21.1882255 C56.641791,20.7686567 56.641791,20.3490879 56.5368988,20.0344113 C56.5368988,20.0344113 50.0335821,20.0344113 50.0335821,20.0344113 Z M97.6546434,21.5029022 C97.2350746,20.4539801 96.1861526,18.6708126 93.878524,18.6708126 C91.5708955,18.6708126 89.6828358,20.4539801 89.6828358,23.1811774 C89.6828358,25.6985904 91.5708955,27.6915423 94.0883085,27.6915423 C96.0812604,27.6915423 97.3399668,26.4328358 97.7595357,25.6985904 L96.2910448,24.6496683 C95.7665837,25.3839138 95.1372305,25.9083748 94.0883085,25.9083748 C93.0393864,25.9083748 92.4100332,25.488806 91.8855721,24.5447761 L97.8644279,22.0273632 L97.6546434,21.5029022 Z M91.5708955,22.971393 C91.5708955,21.2931177 92.9344942,20.3490879 93.878524,20.3490879 C94.6127695,20.3490879 95.3470149,20.7686567 95.5567993,21.2931177 L91.5708955,22.971393 Z M86.6409619,27.2719735 L88.6339138,27.2719735 L88.6339138,14.1604478 L86.6409619,14.1604478 L86.6409619,27.2719735 Z M83.4941957,19.6148425 L83.4941957,19.6148425 C82.9697347,19.0903814 82.130597,18.5659204 81.081675,18.5659204 C78.8789386,18.5659204 76.7810945,20.5588723 76.7810945,23.0762852 C76.7810945,25.5936982 78.7740464,27.4817579 81.081675,27.4817579 C82.130597,27.4817579 82.9697347,26.9572968 83.3893035,26.4328358 L83.4941957,26.4328358 L83.4941957,27.0621891 C83.4941957,28.7404643 82.5501658,29.6844942 81.081675,29.6844942 C79.9278607,29.6844942 79.0887231,28.8453566 78.8789386,28.1111111 L77.2006633,28.8453566 C77.7251244,29.9991708 78.9838308,31.4676617 81.1865672,31.4676617 C83.4941957,31.4676617 85.3822554,30.104063 85.3822554,26.8524046 L85.3822554,18.880597 L83.4941957,18.880597 C83.4941957,18.880597 83.4941957,19.6148425 83.4941957,19.6148425 Z M81.1865672,25.8034826 C79.8229685,25.8034826 78.6691542,24.6496683 78.6691542,23.0762852 C78.6691542,21.5029022 79.8229685,20.3490879 81.1865672,20.3490879 C82.5501658,20.3490879 83.5990879,21.5029022 83.5990879,23.0762852 C83.5990879,24.6496683 82.5501658,25.8034826 81.1865672,25.8034826 Z M106.780265,14.1604478 L102.060116,14.1604478 L102.060116,27.2719735 L104.053068,27.2719735 L104.053068,22.3420398 L106.780265,22.3420398 C108.983002,22.3420398 111.080846,20.7686567 111.080846,18.2512438 C111.080846,15.7338308 108.983002,14.1604478 106.780265,14.1604478 Z M106.885158,20.4539801 L104.053068,20.4539801 L104.053068,15.9436153 L106.885158,15.9436153 C108.353648,15.9436153 109.192786,17.2023217 109.192786,18.1463516 C109.087894,19.3001658 108.248756,20.4539801 106.885158,20.4539801 Z M118.947761,18.5659204 C117.47927,18.5659204 116.010779,19.1952736 115.486318,20.5588723 L117.269486,21.2931177 C117.689055,20.5588723 118.318408,20.3490879 119.052653,20.3490879 C120.101575,20.3490879 121.045605,20.9784411 121.150498,22.0273632 L121.150498,22.1322554 C120.835821,21.922471 119.996683,21.6077944 119.157546,21.6077944 C117.269486,21.6077944 115.381426,22.6567164 115.381426,24.5447761 C115.381426,26.3279436 116.954809,27.4817579 118.633085,27.4817579 C119.996683,27.4817579 120.626036,26.8524046 121.150498,26.2230514 L121.25539,26.2230514 L121.25539,27.2719735 L123.143449,27.2719735 L123.143449,22.2371476 C122.933665,19.9295191 121.150498,18.5659204 118.947761,18.5659204 Z M118.737977,25.8034826 C118.108624,25.8034826 117.164594,25.488806 117.164594,24.6496683 C117.164594,23.6007463 118.318408,23.2860697 119.262438,23.2860697 C120.101575,23.2860697 120.521144,23.4958541 121.045605,23.7056385 C120.835821,24.9643449 119.786899,25.8034826 118.737977,25.8034826 Z M129.751658,18.880597 L127.548922,24.5447761 L127.44403,24.5447761 L125.136401,18.880597 L123.038557,18.880597 L126.5,26.8524046 L124.507048,31.2578773 L126.5,31.2578773 L131.849502,18.880597 L129.751658,18.880597 L129.751658,18.880597 Z M112.129768,27.2719735 L114.12272,27.2719735 L114.12272,14.1604478 L112.129768,14.1604478 L112.129768,27.2719735 Z" id="Shape" fill="#FFFFFF"></path>
                <g id="Group" transform="translate(9.440299, 7.342454)">
                    <path d="M1.46849088,0.524461028 C1.15381426,0.839137645 0.944029851,1.36359867 0.944029851,1.99295191 L0.944029851,25.1741294 C0.944029851,25.8034826 1.15381426,26.3279436 1.46849088,26.6426202 L1.57338308,26.7475124 L14.5800166,13.7408789 L14.5800166,13.6359867 L14.5800166,13.5310945 L1.46849088,0.524461028 L1.46849088,0.524461028 Z" id="Path" fill="url(#linearGradient-1)"></path>
                    <path d="M18.880597,18.1463516 L14.5800166,13.8457711 L14.5800166,13.6359867 L14.5800166,13.5310945 L18.880597,9.2305141 L18.9854892,9.3354063 L24.1252073,12.2723881 C25.5936982,13.1115257 25.5936982,14.4751244 24.1252073,15.314262 L18.880597,18.1463516 L18.880597,18.1463516 Z" id="Path" fill="url(#linearGradient-2)"></path>
                    <path d="M18.9854892,18.0414594 L14.5800166,13.6359867 L1.46849088,26.7475124 C1.99295191,27.2719735 2.72719735,27.2719735 3.6712272,26.8524046 L18.9854892,18.0414594" id="Path" fill="url(#linearGradient-3)"></path>
                    <path d="M18.9854892,9.2305141 L3.6712272,0.524461028 C2.72719735,1.38777878e-16 1.99295191,0.104892206 1.46849088,0.629353234 L14.5800166,13.6359867 L18.9854892,9.2305141 Z" id="Path" fill="url(#linearGradient-4)"></path>
                    <g transform="translate(0.000000, 17.831675)" fill="#000000" id="Path">
                        <path d="M18.880597,0.104892206 L3.6712272,8.70605307 C2.83208955,9.2305141 2.09784411,9.12562189 1.57338308,8.70605307 L1.57338308,8.70605307 L1.46849088,8.81094527 L1.46849088,8.81094527 L1.57338308,8.91583748 L1.57338308,8.91583748 C2.09784411,9.3354063 2.83208955,9.44029851 3.6712272,8.91583748 L18.880597,0.104892206 L18.880597,0.104892206 Z" opacity="0.2"></path>
                        <path d="M1.46849088,8.70605307 C1.15381426,8.39137645 1.04892206,7.86691542 1.04892206,7.23756219 L1.04892206,7.34245439 C1.04892206,7.97180763 1.25870647,8.49626866 1.57338308,8.81094527 L1.57338308,8.70605307 L1.46849088,8.70605307 Z" opacity="0.12"></path>
                    </g>
                    <path d="M24.1252073,14.9995854 L18.880597,17.9365672 L18.9854892,18.0414594 L24.1252073,14.9995854 C24.8594527,14.6849088 25.1741294,14.1604478 25.1741294,13.6359867 L25.1741294,13.6359867 C25.1741294,14.1604478 24.7545605,14.5800166 24.1252073,14.9995854 Z" id="Path" fill="#000000" opacity="0.12"></path>
                    <path d="M3.6712272,0.629353234 L24.1252073,12.2723881 C24.7545605,12.6919569 25.1741294,13.1115257 25.1741294,13.6359867 L25.1741294,13.6359867 C25.1741294,13.1115257 24.8594527,12.5870647 24.1252073,12.1674959 L3.6712272,0.524461028 C2.20273632,-0.314676617 1.04892206,0.419568823 1.04892206,2.09784411 L1.04892206,2.20273632 C1.04892206,0.524461028 2.20273632,-0.209784411 3.6712272,0.629353234 Z" id="Path" fill="#FFFFFF" opacity="0.25"></path>
                </g>
            </g>
        </g>
    </g>
</svg>