<?xml version="1.0" encoding="UTF-8"?>
<svg width="500px" height="236px" viewBox="0 0 500 236" version="1.1" xmlns="http://www.w3.org/2000/svg" xmlns:xlink="http://www.w3.org/1999/xlink">
    <!-- Generator: Sketch 55.2 (78181) - https://sketchapp.com -->
    <title>connectivity</title>
    <desc>Created with Sketch.</desc>
    <g id="Page-1" stroke="none" stroke-width="1" fill="none" fill-rule="evenodd">
        <g id="PAges" transform="translate(-101.000000, -868.000000)">
            <g id="Page2" transform="translate(0.000000, 650.331675)">
                <g id="connectivity" transform="translate(101.745439, 217.512438)">
                    <g id="Group-2" opacity="0.329822359" transform="translate(60.837479, 37.375622)" stroke="#FFFFFF">
                        <polyline id="Path-4" opacity="0.867164249" points="24.9538307 0.305186307 107.374894 0.305186307 138.697349 48.6932681"></polyline>
                        <polyline id="Path-4" opacity="0.867164249" transform="translate(293.653115, 24.194041) scale(-1, 1) translate(-293.653115, -24.194041) " points="234.387767 1.71909e-13 320.277725 2.68607813e-15 352.918463 48.3880818"></polyline>
                        <polyline id="Path-4" opacity="0.867164249" transform="translate(81.825590, 136.647962) scale(1, -1) translate(-81.825590, -136.647962) " points="24.9538307 110.883456 107.374894 110.883456 138.697349 162.412468"></polyline>
                        <polyline id="Path-4" opacity="0.867164249" transform="translate(293.653115, 136.647962) scale(-1, -1) translate(-293.653115, -136.647962) " points="234.387767 110.883456 320.277725 110.883456 352.918463 162.412468"></polyline>
                        <path d="M-5.68434189e-14,79.0703812 L120.320072,79.0703812" id="Path-4" opacity="0.867164249"></path>
                        <path d="M252.211932,79.0703812 L372.532004,79.0703812" id="Path-4" opacity="0.867164249"></path>
                    </g>
                    <g id="fb" transform="translate(370.269486, 1.712272)" fill="#4D5065" fill-rule="nonzero">
                        <polygon id="Path" points="21.8458681 72.3756219 0.58763387 36.1878109 21.8458681 0 64.3623366 0 85.6205709 36.1878109 64.3623366 72.3756219"></polygon>
                    </g>
                    <g id="fb" transform="translate(0.000000, 80.381426)" fill-rule="nonzero">
                        <polygon id="Path" fill="#4D5065" points="21.5029022 73.4245439 0 36.712272 21.5029022 0 64.5087065 0 86.0116086 36.712272 64.5087065 73.4245439"></polygon>
                        <path d="M53.6739108,39.7700254 L55.0803506,31.1544686 L46.7979828,31.1544686 L46.7979828,25.1543487 C46.7979828,22.6927611 47.7356093,20.8465704 51.4861155,20.8465704 L55.5491639,20.8465704 L55.5491639,13.0002597 C53.3613686,12.6925613 50.8610312,12.3848628 48.6732359,12.3848628 C41.4847657,12.3848628 36.4840908,16.6926412 36.4840908,24.3851026 L36.4840908,31.1544686 L28.6705362,31.1544686 L28.6705362,39.7700254 L36.4840908,39.7700254 L36.4840908,61.4627665 C38.2030728,61.7704649 39.9220548,61.9243142 41.6410368,61.9243142 C43.3600188,61.9243142 45.0790008,61.7704649 46.7979828,61.4627665 L46.7979828,39.7700254 L53.6739108,39.7700254 L53.6739108,39.7700254 Z" id="Path" fill="#1F2348"></path>
                    </g>
                    <g id="logo" transform="translate(413.275290, 80.381426)" fill="#4D5065" fill-rule="nonzero">
                        <polygon id="Path" points="21.8458681 72.3756219 0.58763387 36.1878109 21.8458681 0 64.3623366 0 85.6205709 36.1878109 64.3623366 72.3756219"></polygon>
                    </g>
                    <g id="logo" transform="translate(370.269486, 163.246269)" fill-rule="nonzero">
                        <polygon id="Path" fill="#4D5065" points="21.8458681 72.8367101 0.58763387 36.4183551 21.8458681 0 64.3623366 0 85.6205709 36.4183551 64.3623366 72.8367101"></polygon>
                        <g id="Instagram-Glyph-Black-Logo.wine" transform="translate(19.985075, 13.909619)" fill="#1F2348">
                            <path d="M23.0000685,0 C16.7535979,0 15.970324,0.0264994314 13.5171066,0.138385919 C11.0690248,0.250066985 9.39709551,0.638930734 7.93408039,1.20740174 C6.42162706,1.79518241 5.13897241,2.58167458 3.86035773,3.86028926 C2.58167458,5.13890394 1.79518241,6.42169553 1.20747021,7.93414887 C0.63886226,9.39709551 0.250135459,11.0690248 0.138317445,13.5171066 C0.0264309574,15.970324 0,16.7535979 0,23.0000685 C0,29.2464021 0.0264309574,30.029676 0.138317445,32.4828934 C0.250135459,34.9309752 0.63886226,36.6029045 1.20747021,38.0658511 C1.79525088,39.5783045 2.58174305,40.8609591 3.86035773,42.1397107 C5.13904089,43.4183254 6.42162706,44.2048176 7.93408039,44.7925983 C9.39709551,45.3610693 11.0690248,45.7498645 13.5171066,45.8616141 C15.970324,45.9735006 16.7535979,46 23.0000685,46 C29.2464021,46 30.029676,45.9735006 32.4828934,45.8616141 C34.9309752,45.749933 36.6029045,45.3610693 38.0658511,44.7925983 C39.5783045,44.2048176 40.8609591,43.4183254 42.1397107,42.1397107 C43.4183254,40.8609591 44.2048176,39.5783045 44.7925983,38.0658511 C45.3610693,36.6029045 45.749933,34.9309752 45.8616141,32.4828934 C45.9735006,30.029676 46,29.2464021 46,23.0000685 C46,16.7535979 45.9735006,15.970324 45.8616141,13.5171066 C45.749933,11.0690248 45.3610693,9.39709551 44.7925983,7.93414887 C44.2048176,6.42169553 43.4183254,5.13890394 42.1397107,3.86028926 C40.8609591,2.58167458 39.5783045,1.79518241 38.0658511,1.20740174 C36.6029045,0.638930734 34.9309752,0.250066985 32.4828934,0.138385919 C30.029676,0.0264994314 29.2464021,0 23.0000685,0 Z M23.0000685,4.14411392 C29.1412261,4.14411392 29.8686937,4.16760049 32.2939737,4.27825445 C34.5364966,4.38048611 35.7543064,4.75517574 36.564696,5.07015606 C37.6383681,5.48743651 38.4045235,5.98579016 39.2092982,6.79063335 C40.0142098,7.59547655 40.5125635,8.36170042 40.9298439,9.43523552 C41.2448243,10.2456936 41.6195139,11.4635718 41.7217456,13.7060263 C41.8323995,16.1313063 41.8558861,16.8587739 41.8558861,23 C41.8558861,29.1412261 41.8323995,29.8686937 41.7217456,32.2939737 C41.6195139,34.5364966 41.2448243,35.7543064 40.9298439,36.564696 C40.5125635,37.6383681 40.0142098,38.4045235 39.2092982,39.2092982 C38.4045235,40.0142098 37.6382996,40.5125635 36.5647645,40.9298439 C35.7543064,41.2448243 34.5364282,41.6195139 32.2939737,41.7217456 C29.8691045,41.8323995 29.1417054,41.8558861 23,41.8558861 C16.8582946,41.8558861 16.1310324,41.8323995 13.7060263,41.7216771 C11.4635034,41.6195139 10.2456936,41.2448243 9.43530399,40.9298439 C8.36163194,40.5125635 7.59547655,40.0142098 6.79070183,39.2092982 C5.98585863,38.4045235 5.48743651,37.6382996 5.07015606,36.5647645 C4.75517574,35.7543064 4.38055458,34.5364282 4.27825445,32.2939737 C4.16760049,29.8686937 4.14411392,29.1412261 4.14411392,23 C4.14411392,16.8587739 4.16760049,16.1313063 4.27825445,13.7060263 C4.38055458,11.4635034 4.75517574,10.2456936 5.07015606,9.43530399 C5.48743651,8.36163194 5.98585863,7.59547655 6.79063335,6.79070183 C7.59547655,5.98579016 8.36170042,5.48743651 9.43523552,5.07015606 C10.2456936,4.75517574 11.4635718,4.38048611 13.7060263,4.27825445 C16.1313063,4.16760049 16.8587739,4.14411392 23,4.14411392 L23.0000685,4.14411392 Z" id="Shape"></path>
                            <path d="M22.8776036,30.8324717 C18.6193856,30.8324717 15.1675283,27.3806144 15.1675283,23.1225341 C15.1675283,18.864316 18.6193856,15.4124587 22.8776036,15.4124587 C27.135684,15.4124587 30.5875413,18.864316 30.5875413,23.1225341 C30.5875413,27.3806144 27.135684,30.8324717 22.8776036,30.8324717 Z M22.8776036,11.2449304 C16.3177113,11.2449304 11,16.5626417 11,23.1225341 C11,29.6822887 16.3177113,35 22.8776036,35 C29.4373583,35 34.7550696,29.6822887 34.7550696,23.1225341 C34.7550696,16.5626417 29.4373583,11.2449304 22.8776036,11.2449304 L22.8776036,11.2449304 Z M38,10.7756437 C38,12.3086242 36.757268,13.5512185 35.2243563,13.5512185 C33.6915135,13.5512185 32.4487815,12.3086242 32.4487815,10.7756437 C32.4487815,9.24273199 33.6915135,8 35.2243563,8 C36.757268,8 38,9.24273199 38,10.7756437 L38,10.7756437 Z" id="Shape"></path>
                        </g>
                    </g>
                    <g id="logo" transform="translate(43.005804, 163.246269)" fill="#4D5065" fill-rule="nonzero">
                        <polygon id="Path" points="21.8458681 72.3756219 0.58763387 36.1878109 21.8458681 0 64.3623366 0 85.6205709 36.1878109 64.3623366 72.3756219"></polygon>
                    </g>
                    <g id="logo" transform="translate(43.005804, 0.663350)" fill-rule="nonzero">
                        <polygon id="Path" fill="#4D5065" points="21.8458681 72.8367101 0.58763387 36.4183551 21.8458681 0 64.3623366 0 85.6205709 36.4183551 64.3623366 72.8367101"></polygon>
                        <path d="M62.7913246,24.4632334 C64.7675513,23.2949113 66.2815064,21.4435347 66.9963302,19.2400893 C65.1190755,20.3408724 63.0645891,21.1158231 60.9221178,21.5312776 C59.1785698,19.6964746 56.6923013,18.5509414 53.9416307,18.5509414 C48.661859,18.5509414 44.3799522,22.7766185 44.3799522,27.9922069 C44.3799522,28.7311977 44.4642597,29.4521525 44.6263325,30.144347 C36.6783461,29.7499911 29.6319437,25.9913016 24.9154151,20.2799654 C24.0918433,21.6748349 23.6204373,23.2966175 23.6204373,25.026982 C23.6204373,28.3021102 25.3089323,31.1917787 27.8745708,32.8844869 C26.3557553,32.8380213 24.8702727,32.433281 23.5423017,31.7041002 L23.5423017,31.8234062 C23.5423017,36.3982273 26.8381936,40.2128529 31.2132954,41.0804115 C30.4095969,41.2978191 29.5661518,41.4113975 28.6935755,41.4113975 C28.0766372,41.4113975 27.4780911,41.3537553 26.8933699,41.2451733 C28.1103355,44.9948448 31.6421156,47.7242606 35.8256431,47.8014013 C32.5527105,50.3343702 28.4286796,51.8442805 23.9495204,51.8442805 C23.178039,51.8442805 22.4155685,51.7988248 21.6670464,51.7097413 C25.8998254,54.3893141 30.9255637,55.9535763 36.3263037,55.9535763 C53.9155855,55.9535763 63.5352795,41.5671413 63.5352795,29.0910658 C63.5352795,28.6814767 63.5261452,28.2749343 63.5061484,27.8698542 C65.3803744,26.5314803 66.9982494,24.8743299 68.2840252,22.97599 C66.5693615,23.7271673 64.7276811,24.2349798 62.7913246,24.4632334 Z" id="Path" fill="#1F2348"></path>
                    </g>
                    <g id="logo" transform="translate(181.463516, 56.256219)" fill-rule="nonzero">
                        <g id="hexagon-svgrepo-com-(1)" fill="#1E2247" stroke="#FFFFFF">
                            <polygon id="Path" points="34.310976 118.528192 0.154470545 59.2640962 34.310976 0 102.623987 0 136.780492 59.2640962 102.623987 118.528192"></polygon>
                        </g>
                        <g id="fingerprint" transform="translate(68.791477, 61.849559) rotate(2.000000) translate(-68.791477, -61.849559) translate(28.932439, 19.892677)" fill="#F3F4FF">
                            <path d="M32.2106906,83.7841544 C31.246256,82.9288073 30.1860358,82.156542 29.3329124,81.205453 C22.3035919,73.3493418 18.6843964,64.1718341 18.6286881,53.7246252 C18.5884266,47.0440558 21.2200042,41.4221861 26.3283499,36.9943209 C37.7091521,27.1447999 55.7244751,31.046454 61.8408063,44.6668608 C63.0870716,47.398802 63.7446766,50.3530859 63.7726543,53.3453501 C63.7833592,54.8759018 62.7555061,55.9939457 61.3268798,56.0226947 C59.8469397,56.0514436 58.7709307,54.97138 58.7246167,53.409178 C58.4662062,44.6882247 52.3546116,37.8847469 43.5807564,36.5512178 C36.4242042,35.4621866 28.9381916,39.3029404 25.5590127,45.7485069 C23.8747914,48.9599489 23.4553084,52.3684134 23.70143,55.9119189 C24.3433251,64.9074379 27.852104,72.6591034 34.2277142,79.1666516 C36.0094841,80.9870665 35.7416002,82.6555604 33.4537982,83.7902207 L32.2106906,83.7841544 Z" id="Path"></path>
                            <path d="M43.0801426,0.128406066 C44.7158976,0.272193672 46.35779,0.378596035 47.9887418,0.568397304 C55.5935347,1.4291619 62.9010633,3.80190402 69.399787,7.52052787 C72.8169939,9.4755917 75.9876368,11.7704623 78.854344,14.3633888 C79.7303936,15.1527794 79.9358636,16.1707997 79.4462045,17.1240936 C78.9893672,18.0155863 77.9660197,18.5892977 76.8748937,18.3822436 C76.2430067,18.2578161 75.6596852,17.9785106 75.1876378,17.5741525 C69.5161311,12.4797764 62.9042654,8.8261288 55.305343,6.72538708 C47.9687284,4.67102128 40.2014273,4.25686306 32.6540059,5.51756309 C22.7866675,7.14379539 14.3148177,11.2173013 7.169397,17.6417539 C6.02661001,18.6683743 4.38623864,18.6885247 3.38632804,17.7193804 C2.38640943,16.7502612 2.48216114,15.3123826 3.60138312,14.3130628 C12.2333528,6.59885957 22.5166746,1.97607776 34.4858913,0.559769633 C36.0901587,0.368531335 37.7069677,0.272193672 39.3128361,0.128406066 L43.0801426,0.128406066 Z" id="Path"></path>
                            <path d="M42.9479066,23.6582914 C53.609869,24.0670781 63.2581545,29.0629753 69.7965447,39.102479 C72.9351113,43.9183932 74.3678711,49.2382804 74.3948711,54.8763167 C74.4340562,61.4672496 68.7750971,66.8184089 61.7576019,66.9047305 C58.3950242,66.9463405 55.1514189,65.7303442 52.7371369,63.522684 C50.3228548,61.3150239 48.9340398,58.2955796 48.8748215,55.1246849 C48.7976503,51.2166974 46.1384566,48.2869345 42.1850363,47.7594427 C37.7415248,47.1647546 33.5598061,50.463064 33.5407813,54.7308106 C33.512378,61.4672496 35.8894141,67.3952642 40.6260693,72.4548945 C43.345553,75.3637232 46.7193849,77.6631323 50.5015814,79.1856476 C51.723192,79.6834179 52.329844,80.606593 52.2352556,81.6677792 C52.1487059,82.6876138 51.4362113,83.6151825 50.3327692,83.7637899 C49.6133078,83.8439087 48.883932,83.7410465 48.2204734,83.4665751 C43.6180641,81.5977399 39.5443316,78.7377578 36.3261821,75.1156134 C31.1243556,69.2873597 28.4619465,62.552213 28.4447973,54.9238711 C28.4305957,49.7050369 32.0179883,45.058406 37.1962347,43.4873025 C42.5666054,41.8523624 48.3308712,43.6196277 51.6034157,47.933378 C53.1905181,50.026029 53.9440099,52.3776445 53.9866149,54.9626382 C54.0337751,57.8745683 55.5094079,60.059485 58.2425573,61.339318 C60.9459637,62.6028687 63.6600883,62.3904247 66.1333206,60.7092225 C68.2046191,59.3030087 69.3190474,57.3393231 69.273227,54.9254217 C69.0888734,45.4122209 64.869105,37.8314333 56.3652588,32.7389801 C46.7499318,26.9745371 36.6616628,26.849681 26.8400367,32.2543907 C18.7411521,36.7136471 14.2408876,43.6152341 13.2620181,52.4699103 C13.1753344,53.2561081 13.1579977,54.0500594 13.1217433,54.8406509 C13.0586933,56.2706419 11.9694796,57.3083094 10.5287615,57.2977131 C9.0880702,57.2873751 7.9736419,56.2143004 8.00673445,54.7856015 C8.19588447,45.4732145 11.9032945,37.6277765 19.3164801,31.4679344 C25.6215879,26.2224026 33.0836486,23.6687069 42.9479066,23.6582914 Z" id="Path"></path>
                            <path d="M39.7081511,10.5861329 C54.1043767,11.0071424 65.6903457,16.964013 74.4161356,28.9138132 C76.4579067,31.7098673 78.0713547,34.7687128 79.4147439,37.9888361 C80.078605,39.5761645 79.5804437,41.0742753 78.1964261,41.7191006 C76.8702972,42.339048 75.4517589,41.7090923 74.8112657,40.1812423 C71.2763383,31.7441818 65.7511554,25.1394832 58.0110664,20.8403998 C46.407837,14.4033273 34.5672109,14.1895198 22.7735066,20.2894531 C14.5428773,24.5473877 8.69755404,31.3083885 4.96572542,40.1254813 C4.29089736,41.7222461 2.89753264,42.3522019 1.54162826,41.7125237 C0.159181395,41.0545445 -0.345372935,39.5744488 0.349755993,37.9808294 C6.69184387,23.465225 17.2952719,14.5957455 32.1600507,11.3722765 C32.9765998,11.1993318 33.8016463,11.0747132 34.6312071,10.9989355 C36.3668055,10.8344836 38.1069182,10.7144117 39.7081511,10.5861329 Z" id="Path"></path>
                            <path d="M60.1720717,75.9469256 C51.1405939,75.7591673 42.4222466,69.7686996 39.031577,61.4666057 C37.8734952,58.6663062 37.2580989,55.6759986 37.2174253,52.6513487 C37.1959742,51.0144627 38.279395,49.8409155 39.8049316,49.8034768 C41.3307469,49.7663196 42.4631987,50.9255107 42.5108369,52.547759 C42.7958304,62.1337458 49.6197932,69.5291485 59.2379731,70.6658201 C59.8051741,70.7322526 60.38519,70.7207114 60.9537839,70.7401344 C62.6138776,70.7984036 63.7872816,71.8962291 63.7726543,73.3839233 C63.7577515,74.8718991 62.5712539,75.9486125 60.9064243,75.9469256 L60.1720717,75.9469256 Z" id="Path"></path>
                        </g>
                    </g>
                    <g id="Mastodon_Logotype_(Simple)" transform="translate(394.254561, 17.155887)" fill-rule="nonzero">
                        <path d="M38.1697631,24.5790842 C37.5964706,27.4712739 33.0351348,30.636491 27.7964354,31.2499188 C25.0646799,31.5695551 22.3750483,31.8633467 19.5070091,31.7343435 C14.816598,31.5236088 11.1155389,30.636491 11.1155389,30.636491 C11.1155389,31.0842469 11.1436967,31.5105759 11.2000123,31.909293 C11.8097972,36.4484824 15.7899563,36.7204052 19.560171,36.8471994 C23.3655265,36.9748772 26.7539216,35.9271681 26.7539216,35.9271681 L26.9102537,39.3006899 C26.9102537,39.3006899 24.2485546,40.7022743 19.5070091,40.9600598 C16.8923899,41.1009913 13.64591,40.8955582 9.8646575,39.9141178 C1.66375921,37.7855651 0.25339212,29.2132588 0.0375908632,20.5152628 C-0.0281857203,17.9327691 0.0123614887,15.4976129 0.0123614887,13.4609529 C0.0123614887,4.56680136 5.9550055,1.95978822 5.9550055,1.95978822 C8.95144425,0.610335308 14.0930556,0.0428538001 19.4383041,0 L19.569632,0 C24.9148804,0.0428538001 30.0598707,0.610335308 33.0560842,1.95978822 C33.0560842,1.95978822 38.998503,4.56680136 38.998503,13.4609529 C38.998503,13.4609529 39.0730648,20.0231068 38.1697631,24.5790842" id="Path" fill="#1F2348"></path>
                        <path d="M32,14.2131426 L32,25 L27.6452238,25 L27.6452238,14.5302013 C27.6452238,12.3231802 26.6989647,11.2029648 24.8062209,11.2029648 C22.7134934,11.2029648 21.6646495,12.5318239 21.6646495,15.1594513 L21.6646495,20.8901836 L17.3355759,20.8901836 L17.3355759,15.1594513 C17.3355759,12.5318239 16.2865066,11.2029648 14.1937791,11.2029648 C12.3010353,11.2029648 11.3547762,12.3231802 11.3547762,14.5302013 L11.3547762,25 L7,25 L7,14.2131426 C7,12.0085552 7.57199416,10.2566561 8.72094261,8.96054281 C9.90573933,7.66442953 11.4573608,7 13.3834728,7 C15.6119278,7 17.2995022,7.84054871 18.4153079,9.52186739 L19.5,11.306291 L20.5849176,9.52186739 C21.7004978,7.84054871 23.3880722,7 25.6167526,7 C27.5426392,7 29.0942607,7.66442953 30.2792829,8.96054281 C31.4280058,10.2566561 32,12.0085552 32,14.2131426" id="Path" fill="#4D5065"></path>
                    </g>
                    <g id="linkedin-svgrepo-com-(1)" transform="translate(67.131012, 178.980100)" fill="#1F2348" fill-rule="nonzero">
                        <path d="M9.95463992,12.4005896 L1.56019332,12.4005896 C1.18763437,12.4005896 0.885756403,12.6934494 0.885756403,13.0545865 L0.885756403,39.2050413 C0.885756403,39.5663092 1.18763437,39.8590381 1.56019332,39.8590381 L9.95463992,39.8590381 C10.3271989,39.8590381 10.6290768,39.5663092 10.6290768,39.2050413 L10.6290768,13.0545865 C10.6290768,12.6934494 10.3271989,12.4005896 9.95463992,12.4005896 Z" id="XMLID_802_"></path>
                        <path d="M5.31667462,0 C2.38503336,0 0,2.38360536 0,5.31343742 C0,8.24456477 2.38503336,10.6290768 5.31667462,10.6290768 C8.24598548,10.6290768 10.6290768,8.24443524 10.6290768,5.31343742 C10.6292063,2.38360536 8.24598548,0 5.31667462,0 Z" id="XMLID_803_"></path>
                        <path d="M29.4885648,12.4005896 C26.2299473,12.4005896 23.8210866,13.7735248 22.3600214,15.3335217 L22.3600214,13.674372 C22.3600214,13.321587 22.0682516,13.0355003 21.7081675,13.0355003 L13.9381999,13.0355003 C13.5781158,13.0355003 13.286346,13.321587 13.286346,13.674372 L13.286346,39.2200387 C13.286346,39.5729514 13.5781158,39.8590381 13.9381999,39.8590381 L22.0338337,39.8590381 C22.3939178,39.8590381 22.6856875,39.5729514 22.6856875,39.2200387 L22.6856875,26.5808573 C22.6856875,22.3217555 23.8660645,20.662478 26.8953598,20.662478 C30.1945225,20.662478 30.4566981,23.322484 30.4566981,26.7999903 L30.4566981,39.2201665 C30.4566981,39.5730792 30.7484679,39.8590381 31.108552,39.8590381 L39.2071843,39.8590381 C39.5672684,39.8590381 39.8590381,39.5730792 39.8590381,39.2201665 L39.8590381,25.2079221 C39.8590381,18.8747873 38.626904,12.4005896 29.4885648,12.4005896 Z" id="XMLID_804_"></path>
                    </g>
                    <g id="telegram_icon_136124" transform="translate(434.253731, 101.359867)" fill="#1F2348" fill-rule="nonzero">
                        <path d="M14.9949742,31.5348341 L15.6141926,22.1469896 L32.5984697,6.78909753 C33.3503778,6.10109947 32.4436651,5.76819718 31.4484926,6.3674213 L10.4835256,19.6613192 L1.41639847,16.7761661 C-0.529716615,16.221329 -0.551831559,14.8675263 1.85869735,13.891013 L37.1762631,0.219825754 C38.790654,-0.512559275 40.3387001,0.619308497 39.7194817,3.1049789 L33.7042169,31.5348341 C33.284033,33.5544413 32.067711,34.042698 30.3869753,33.1105716 L21.2313884,26.319365 L16.8305145,30.6027077 C16.3218708,31.1131579 15.9016869,31.5348341 14.9949742,31.5348341 Z" id="Path"></path>
                    </g>
                </g>
            </g>
        </g>
    </g>
</svg>