<?xml version="1.0" encoding="UTF-8"?>
<svg width="235px" height="49px" viewBox="0 0 235 49" version="1.1" xmlns="http://www.w3.org/2000/svg" xmlns:xlink="http://www.w3.org/1999/xlink">
    <!-- Generator: Sketch 55.2 (78181) - https://sketchapp.com -->
    <title>BrandLogo</title>
    <desc>Created with Sketch.</desc>
    <defs>
        <filter x="-36.9%" y="-34.7%" width="175.3%" height="170.4%" filterUnits="objectBoundingBox" id="filter-1">
            <feOffset dx="0" dy="2" in="SourceAlpha" result="shadowOffsetOuter1"></feOffset>
            <feGaussianBlur stdDeviation="2" in="shadowOffsetOuter1" result="shadowBlurOuter1"></feGaussianBlur>
            <feColorMatrix values="0 0 0 0 1   0 0 0 0 1   0 0 0 0 1  0 0 0 0.158107517 0" type="matrix" in="shadowBlurOuter1" result="shadowMatrixOuter1"></feColorMatrix>
            <feMerge>
                <feMergeNode in="shadowMatrixOuter1"></feMergeNode>
                <feMergeNode in="SourceGraphic"></feMergeNode>
            </feMerge>
        </filter>
    </defs>
    <g id="Page-1" stroke="none" stroke-width="1" fill="none" fill-rule="evenodd">
        <g id="PAges" transform="translate(-104.000000, -2699.000000)">
            <g id="BrandLogo" transform="translate(103.843284, 2699.925373)">
                <text id="MYSOMEID" font-family="DINAlternate-Bold, DIN Alternate" font-size="32" font-weight="bold" letter-spacing="2.56" fill="#A0A0A0">
                    <tspan x="70.2777778" y="34.1956882">MYSOMEID</tspan>
                </text>
                <g id="logo" fill-rule="nonzero">
                    <g id="hexagon-svgrepo-com-(1)" transform="translate(0.250829, 0.000000)" fill="#A0A0A0">
                        <polygon id="Path" points="14.4340796 47.2014925 0.798092869 23.6007463 14.4340796 0 41.7060531 0 55.3420398 23.6007463 41.7060531 47.2014925"></polygon>
                    </g>
                    <g id="fingerprint" filter="url(#filter-1)" transform="translate(11.538143, 7.342454)" fill="#ECECEC">
                        <path d="M13.459901,34.0419277 C13.0789572,33.6987585 12.660179,33.3889221 12.3232023,33.0073408 C9.54667848,29.8554328 8.11712603,26.1733744 8.09512172,21.981906 C8.07921875,19.3016307 9.11867026,17.0461107 11.1364248,15.2696307 C15.631748,11.3179575 22.7476523,12.8833191 25.1635528,18.3478891 C25.6558174,19.4439565 25.9155659,20.6292289 25.9266169,21.8297391 C25.9308453,22.4438035 25.5248517,22.8923678 24.9605561,22.903902 C24.3759919,22.9154363 23.9509772,22.4821097 23.9326836,21.8553471 C23.8306136,18.3564604 21.416584,15.6268738 17.9509834,15.0918558 C15.1242041,14.6549314 12.1672908,16.1958595 10.8325429,18.7818506 C10.1672894,20.0702959 10.001597,21.4377876 10.098813,22.8594583 C10.3523563,26.468502 11.7382951,29.5785059 14.2566087,32.1893643 C14.9603931,32.9197232 14.8545812,33.5891306 13.9509182,34.0443615 L13.459901,34.0419277 Z" id="Path"></path>
                        <path d="M17.7532451,0.478855721 C18.3993548,0.536543972 19.0478888,0.579233091 19.6921013,0.655382235 C22.695932,1.00072496 25.5823456,1.95268004 28.149288,3.44460908 C29.4990566,4.2289897 30.7514345,5.14970236 31.8837603,6.18999642 C32.2297926,6.5067036 32.3109516,6.91513801 32.1175403,7.29760393 C31.9370933,7.65527491 31.5328794,7.88545057 31.1018937,7.80237951 C30.8523035,7.75245863 30.6218963,7.64039996 30.4354415,7.47816965 C28.195243,5.43428244 25.5836104,3.96842219 22.5820986,3.12559492 C19.6841962,2.30137389 16.6161762,2.1352117 13.6350068,2.64101037 C9.73748939,3.29346227 6.3911784,4.92777162 3.56879603,7.50529162 C3.11740457,7.91717646 2.46947137,7.92526089 2.07451491,7.53643575 C1.67955529,7.14762064 1.71737643,6.57073713 2.1594599,6.1698054 C5.56901691,3.0748315 9.63084439,1.22015013 14.3585865,0.651920774 C14.9922589,0.575195087 15.6308852,0.536543972 16.26519,0.478855721 L17.7532451,0.478855721 Z" id="Path"></path>
                        <path d="M17.7010129,9.91915423 C21.9124003,10.0831613 25.7233937,12.0875383 28.306004,16.1154335 C29.545712,18.0476005 30.1116404,20.1819638 30.1223051,22.4439699 C30.1377829,25.0882826 27.9025406,27.2351924 25.1306878,27.269825 C23.8024973,27.2865191 22.5212999,26.7986558 21.5676783,25.9129324 C20.6140568,25.0272089 20.0654863,23.815794 20.0420956,22.5436164 C20.0116135,20.9757138 18.9612539,19.8002794 17.3996854,19.5886473 C15.644535,19.3500557 13.9927905,20.6733526 13.9852758,22.3855922 C13.9740567,25.0882826 14.9129665,27.4666294 16.7839063,29.4965764 C17.85808,30.6636119 19.1907158,31.5861454 20.6846523,32.1969856 C21.1671784,32.3966933 21.406801,32.7670754 21.3694393,33.1928282 C21.3352529,33.6019905 21.0538234,33.9741354 20.6179729,34.0337574 C20.3337915,34.0659014 20.0456941,34.0246326 19.7836334,33.9145134 C17.9657196,33.1647281 16.3566288,32.0172901 15.0854862,30.5640691 C13.0308076,28.2257468 11.9791779,25.5235749 11.9724041,22.4630489 C11.9667946,20.3692286 13.3837851,18.5049789 15.4291498,17.8746449 C17.5504021,17.2186994 19.8272396,17.9277344 21.1198678,19.6584309 C21.7467602,20.4980121 22.0443832,21.4414911 22.0612119,22.4786025 C22.0798398,23.6468823 22.6627026,24.523481 23.7422741,25.0369558 C24.8100974,25.5438982 25.8821542,25.4586647 26.8590607,24.7841586 C27.6772065,24.2199791 28.1173965,23.4321395 28.0992978,22.4636711 C28.0264797,18.646931 26.3597059,15.6054841 23.0007566,13.5623684 C19.2027816,11.2496473 15.2179984,11.1995544 11.3385368,13.3679489 C8.13954408,15.1570231 6.36197662,17.9259717 5.97533124,21.4785086 C5.94109189,21.7939348 5.93424402,22.1124717 5.91992382,22.4296606 C5.89501959,23.0033796 5.46478916,23.4196966 4.89571736,23.4154453 C4.32665615,23.4112977 3.88646614,22.9807751 3.89953743,22.4075746 C3.97425013,18.671402 5.43864659,15.5237761 8.36679389,13.052419 C10.8572596,10.9478875 13.8047122,9.92333295 17.7010129,9.91915423 Z" id="Path"></path>
                        <path d="M16.4213361,4.67454395 C22.1077268,4.84345488 26.6840892,7.23337887 30.1307044,12.0276938 C30.9371872,13.1494836 31.5744859,14.3767065 32.1051136,15.6686348 C32.3673333,16.3054783 32.1705636,16.9065273 31.6238881,17.1652342 C31.1000781,17.4139599 30.5397671,17.1612188 30.2867776,16.5482383 C28.8905103,13.1632507 26.7081085,10.5134152 23.6508371,8.78860313 C19.067657,6.20601994 14.3907071,6.12023939 9.7322909,8.56756074 C6.48126008,10.2758638 4.17240548,12.9884084 2.69836388,16.5258667 C2.43181235,17.1664962 1.88144475,17.4192373 1.34587368,17.1625955 C0.799818543,16.8986112 0.600523734,16.3047899 0.875093941,15.6654225 C3.38016647,9.84169508 7.56843329,6.283219 13.4398986,4.98994838 C13.7624288,4.92056216 14.0883154,4.87056461 14.4159851,4.84016225 C15.1015321,4.77418339 15.7888623,4.72600998 16.4213361,4.67454395 Z" id="Path"></path>
                        <path d="M24.5044164,30.8975954 C20.937057,30.8222659 17.4933815,28.4188626 16.154095,25.0880242 C15.6966622,23.9645312 15.4535857,22.764806 15.43752,21.5513025 C15.429047,20.8945763 15.8569892,20.4237437 16.4595637,20.4087232 C17.0622481,20.3938155 17.5095573,20.8588883 17.528374,21.5097418 C17.6409441,25.3556839 20.3363532,28.3227536 24.1354551,28.7787915 C24.3594949,28.8054445 24.5885964,28.8008141 24.8131863,28.8086067 C25.4689096,28.8319846 25.9323946,29.2724373 25.9266169,29.8693071 C25.9207304,30.4662898 25.4520736,30.8982722 24.7944796,30.8975954 L24.5044164,30.8975954 Z" id="Path"></path>
                    </g>
                </g>
            </g>
        </g>
    </g>
</svg>