<?xml version="1.0" encoding="UTF-8"?>
<svg width="363px" height="312px" viewBox="0 0 363 312" version="1.1" xmlns="http://www.w3.org/2000/svg" xmlns:xlink="http://www.w3.org/1999/xlink">
    <!-- Generator: Sketch 55.2 (78181) - https://sketchapp.com -->
    <title>how-it-works</title>
    <desc>Created with Sketch.</desc>
    <defs>
        <linearGradient x1="50%" y1="-48.2270801%" x2="50%" y2="100%" id="linearGradient-1">
            <stop stop-color="#B6D9F3" offset="0%"></stop>
            <stop stop-color="#4ABCE3" offset="100%"></stop>
        </linearGradient>
        <path d="M18.356136,0 L0,8.20066335 L0,20.5016584 C0,31.8800788 7.83195135,42.5204395 18.356136,45.1036484 C28.8803206,42.5204395 36.712272,31.8800788 36.712272,20.5016584 L36.712272,8.20066335 L18.356136,0 Z" id="path-2"></path>
        <filter x="-46.3%" y="-31.3%" width="203.5%" height="184.4%" filterUnits="objectBoundingBox" id="filter-3">
            <feMorphology radius="0.5" operator="dilate" in="SourceAlpha" result="shadowSpreadOuter1"></feMorphology>
            <feOffset dx="2" dy="5" in="shadowSpreadOuter1" result="shadowOffsetOuter1"></feOffset>
            <feGaussianBlur stdDeviation="5" in="shadowOffsetOuter1" result="shadowBlurOuter1"></feGaussianBlur>
            <feColorMatrix values="0 0 0 0 0   0 0 0 0 0   0 0 0 0 0  0 0 0 0.135134397 0" type="matrix" in="shadowBlurOuter1"></feColorMatrix>
        </filter>
        <linearGradient x1="50%" y1="-48.2270801%" x2="50%" y2="99.0062902%" id="linearGradient-4">
            <stop stop-color="#FEE18D" offset="0%"></stop>
            <stop stop-color="#FFD99C" offset="100%"></stop>
        </linearGradient>
        <path d="M17.981521,0 L0,8.20066335 L0,20.5016584 C0,31.8800788 7.67211561,42.5204395 17.981521,45.1036484 C28.2909263,42.5204395 35.9630419,31.8800788 35.9630419,20.5016584 L35.9630419,8.20066335 L17.981521,0 Z" id="path-5"></path>
        <filter x="-37.5%" y="-27.9%" width="180.6%" height="164.4%" filterUnits="objectBoundingBox" id="filter-6">
            <feMorphology radius="0.5" operator="dilate" in="SourceAlpha" result="shadowSpreadOuter1"></feMorphology>
            <feOffset dx="1" dy="2" in="shadowSpreadOuter1" result="shadowOffsetOuter1"></feOffset>
            <feGaussianBlur stdDeviation="4" in="shadowOffsetOuter1" result="shadowBlurOuter1"></feGaussianBlur>
            <feColorMatrix values="0 0 0 0 0   0 0 0 0 0   0 0 0 0 0  0 0 0 0.163406906 0" type="matrix" in="shadowBlurOuter1"></feColorMatrix>
        </filter>
        <linearGradient x1="50%" y1="-48.2270801%" x2="50%" y2="100%" id="linearGradient-7">
            <stop stop-color="#F3B6B6" offset="0%"></stop>
            <stop stop-color="#E34A4A" offset="100%"></stop>
        </linearGradient>
        <path d="M18.356136,0 L0,8.20066335 L0,20.5016584 C0,31.8800788 7.83195135,42.5204395 18.356136,45.1036484 C28.8803206,42.5204395 36.712272,31.8800788 36.712272,20.5016584 L36.712272,8.20066335 L18.356136,0 Z" id="path-8"></path>
        <filter x="-46.3%" y="-31.3%" width="203.5%" height="184.4%" filterUnits="objectBoundingBox" id="filter-9">
            <feMorphology radius="0.5" operator="dilate" in="SourceAlpha" result="shadowSpreadOuter1"></feMorphology>
            <feOffset dx="2" dy="5" in="shadowSpreadOuter1" result="shadowOffsetOuter1"></feOffset>
            <feGaussianBlur stdDeviation="5" in="shadowOffsetOuter1" result="shadowBlurOuter1"></feGaussianBlur>
            <feColorMatrix values="0 0 0 0 0   0 0 0 0 0   0 0 0 0 0  0 0 0 0.165155157 0" type="matrix" in="shadowBlurOuter1"></feColorMatrix>
        </filter>
    </defs>
    <g id="Page-1" stroke="none" stroke-width="1" fill="none" fill-rule="evenodd">
        <g id="PAges" transform="translate(-724.000000, -1467.000000)">
            <g id="Page3" transform="translate(0.000000, 1300.663350)">
                <g id="how-it-works" transform="translate(724.805141, 168.876451)">
                    <polygon id="Path-5" stroke-opacity="0.33831403" stroke="#979797" stroke-width="4" points="40.9079602 265.395228 177.819892 6.29353234 313.627695 268.524046"></polygon>
                    <g id="logo" transform="translate(108.038972, 0.000000)" fill="#ACACAC" fill-rule="nonzero">
                        <polygon id="Path" points="34.6835226 118.528192 0 59.2640962 34.6835226 0 104.050568 0 138.734091 59.2640962 104.050568 118.528192"></polygon>
                    </g>
                    <g id="logo" transform="translate(0.000000, 189.854892)" fill="#ACACAC" fill-rule="nonzero">
                        <polygon id="Path" points="34.6835226 118.528192 0 59.2640962 34.6835226 0 104.050568 0 138.734091 59.2640962 104.050568 118.528192"></polygon>
                    </g>
                    <g id="logo" transform="translate(215.029022, 190.903814)" fill="#ACACAC" fill-rule="nonzero">
                        <polygon id="Path" points="34.6835226 118.528192 0 59.2640962 34.6835226 0 104.050568 0 138.734091 59.2640962 104.050568 118.528192"></polygon>
                    </g>
                    <g id="4b36f3973b91031a6ebb3a13bf6df0d7" transform="translate(249.194859, 210.460199)" fill="#FFFFFF" fill-rule="nonzero">
                        <path d="M15.4910674,37.2939301 C15.2838983,37.2939301 15.1227668,37.344843 15,37.4339406 C15.1688044,37.344843 15.3529547,37.2939301 15.5447778,37.2939301 L15.4910674,37.2939301 L15.4910674,37.2939301 Z M72.2017876,60 C72.2156442,59.8920228 72.2295008,59.7917582 72.2710706,59.6914936 C72.2295008,59.7377696 72.2156442,59.8303215 72.2017876,60 L72.2017876,60 Z M76,18.1151526 C76,18.1011515 76,18.1011515 76,18.0871505 L76,18.0031442 C76,18.0311463 76,18.0731494 76,18.1151526 L76,18.1151526 Z M72.2172468,18.0980073 C72.2172468,18.1120084 72.2172468,18.1120084 72.2172468,18.1260094 C72.2172468,18.0840063 72.2172468,18.0420031 72.2172468,18 L72.2172468,18.0980073 L72.2172468,18.0980073 Z" id="Shape"></path>
                        <path d="M73.9793843,75.3170878 C73.4479718,71.2731649 72.2773238,67.377858 70.5059487,63.7172082 C70.1593752,63.0054152 69.7896969,62.301444 69.4046154,61.6131167 C69.4046154,61.6131167 69.4046154,61.6052948 69.3969138,61.6052948 C67.7102565,58.7033694 65.6462194,56.0126354 63.2356088,53.6113117 L63.2356088,53.6113117 C62.7118979,53.0872443 62.1727837,52.5788207 61.6182662,52.0860409 C57.6596278,48.5583634 53.0848589,45.9458484 48.2020247,44.3580024 C49.0877123,43.8574007 49.9425933,43.3020457 50.7589663,42.6919374 C51.6908636,41.9957882 52.5842528,41.2135981 53.416029,40.3688327 C57.8136604,35.9025271 60.2319726,29.965704 60.2319726,23.6456077 C60.2319726,17.3255114 57.8059588,11.3886883 53.416029,6.92238267 C49.1031155,2.54211793 43.3885052,0.0860409146 37.2965149,0 C37.1963937,0 37.1039741,0 37.0038529,0 C36.9037317,0 36.8113121,0 36.7111909,0 C30.6192007,0.0860409146 24.9045903,2.54211793 20.5839752,6.92238267 C16.1863438,11.3886883 13.7680316,17.3255114 13.7680316,23.6456077 C13.7680316,29.965704 16.1940454,35.9025271 20.5839752,40.3688327 C21.423453,41.22142 22.3091406,41.9957882 23.241038,42.6919374 C24.0574109,43.3098676 24.9122919,43.8652226 25.7979795,44.3580024 C20.922847,45.9458484 16.348078,48.5661853 12.381738,52.0860409 C11.8272205,52.5788207 11.2881063,53.0872443 10.7643954,53.6113117 C8.35378486,56.0126354 6.28204607,58.7111913 4.59538884,61.6131167 C4.21030728,62.301444 3.84062898,63.0054152 3.49405557,63.7172082 C1.7226804,67.3700361 0.552032455,71.2731649 0.0206199023,75.3170878 C-0.148815984,76.6155235 0.744573235,77.8044525 2.01534238,77.9765343 C2.12316522,77.9921781 2.22328643,78 2.33110926,78 C2.42352884,78 2.51594841,77.9921781 2.60836799,77.9843562 C3.53256373,77.7809868 4.27192033,77.0144404 4.41825132,76.0132371 C5.48877805,68.5354994 9.00072188,61.7382671 14.0452903,56.5601685 C20.0525627,50.4199759 28.2008885,46.5559567 37.0038529,46.5403129 L37.0500627,46.5403129 C45.8376239,46.5716005 53.9705465,50.4277978 59.9470123,56.5601685 C64.9915807,61.7382671 68.5035245,68.5354994 69.5740513,76.0132371 C69.7203823,77.0144404 70.4597389,77.7731649 71.376233,77.9843562 C71.376233,77.9843562 71.376233,77.9843562 71.3839346,77.9843562 C71.4763542,78 71.5687738,78 71.6611933,78 C71.7613145,78 71.8691374,77.9921781 71.9769602,77.9765343 C73.255431,77.8044525 74.1488202,76.6155235 73.9793843,75.3170878 L73.9793843,75.3170878 Z M36.9576431,42.566787 C36.9114334,42.566787 36.8652236,42.566787 36.8190138,42.566787 C28.1315738,42.5042118 20.3837328,36.3718412 18.2657842,28.143201 C18.2426793,28.05716 18.2195744,27.9632972 18.1964695,27.8694344 C17.8652994,26.5084236 17.6881619,25.1004813 17.6881619,23.6456077 C17.6881619,22.1907341 17.8652994,20.767148 18.1964695,19.3826715 C18.2195744,19.2888087 18.2426793,19.1949458 18.2657842,19.1089049 C20.3914344,10.6768953 28.2085901,3.97352587 36.9576431,3.97352587 L37.0577643,3.97352587 C45.8068174,3.97352587 53.6239731,10.6768953 55.7573249,19.1089049 C55.7804298,19.2027677 55.8035347,19.2888087 55.8266396,19.3826715 C56.1578097,20.767148 56.3349472,22.198556 56.3349472,23.6456077 C56.3349472,25.1004813 56.1578097,26.5084236 55.8266396,27.8694344 C55.8035347,27.9632972 55.7804298,28.0493381 55.7573249,28.143201 C53.6393763,36.3718412 45.8915353,42.5042118 37.2040953,42.566787 C37.1193774,42.566787 37.0346595,42.566787 36.9576431,42.566787 L36.9576431,42.566787 Z" id="Shape"></path>
                    </g>
                    <g id="4b36f3973b91031a6ebb3a13bf6df0d7" transform="translate(32.194859, 210.460199)" fill="#FFFFFF" fill-rule="nonzero">
                        <path d="M15.4910674,37.2939301 C15.2838983,37.2939301 15.1227668,37.344843 15,37.4339406 C15.1688044,37.344843 15.3529547,37.2939301 15.5447778,37.2939301 L15.4910674,37.2939301 L15.4910674,37.2939301 Z M72.2017876,60 C72.2156442,59.8920228 72.2295008,59.7917582 72.2710706,59.6914936 C72.2295008,59.7377696 72.2156442,59.8303215 72.2017876,60 L72.2017876,60 Z M76,18.1151526 C76,18.1011515 76,18.1011515 76,18.0871505 L76,18.0031442 C76,18.0311463 76,18.0731494 76,18.1151526 L76,18.1151526 Z M72.2172468,18.0980073 C72.2172468,18.1120084 72.2172468,18.1120084 72.2172468,18.1260094 C72.2172468,18.0840063 72.2172468,18.0420031 72.2172468,18 L72.2172468,18.0980073 L72.2172468,18.0980073 Z" id="Shape"></path>
                        <path d="M73.9793843,75.3170878 C73.4479718,71.2731649 72.2773238,67.377858 70.5059487,63.7172082 C70.1593752,63.0054152 69.7896969,62.301444 69.4046154,61.6131167 C69.4046154,61.6131167 69.4046154,61.6052948 69.3969138,61.6052948 C67.7102565,58.7033694 65.6462194,56.0126354 63.2356088,53.6113117 L63.2356088,53.6113117 C62.7118979,53.0872443 62.1727837,52.5788207 61.6182662,52.0860409 C57.6596278,48.5583634 53.0848589,45.9458484 48.2020247,44.3580024 C49.0877123,43.8574007 49.9425933,43.3020457 50.7589663,42.6919374 C51.6908636,41.9957882 52.5842528,41.2135981 53.416029,40.3688327 C57.8136604,35.9025271 60.2319726,29.965704 60.2319726,23.6456077 C60.2319726,17.3255114 57.8059588,11.3886883 53.416029,6.92238267 C49.1031155,2.54211793 43.3885052,0.0860409146 37.2965149,0 C37.1963937,0 37.1039741,0 37.0038529,0 C36.9037317,0 36.8113121,0 36.7111909,0 C30.6192007,0.0860409146 24.9045903,2.54211793 20.5839752,6.92238267 C16.1863438,11.3886883 13.7680316,17.3255114 13.7680316,23.6456077 C13.7680316,29.965704 16.1940454,35.9025271 20.5839752,40.3688327 C21.423453,41.22142 22.3091406,41.9957882 23.241038,42.6919374 C24.0574109,43.3098676 24.9122919,43.8652226 25.7979795,44.3580024 C20.922847,45.9458484 16.348078,48.5661853 12.381738,52.0860409 C11.8272205,52.5788207 11.2881063,53.0872443 10.7643954,53.6113117 C8.35378486,56.0126354 6.28204607,58.7111913 4.59538884,61.6131167 C4.21030728,62.301444 3.84062898,63.0054152 3.49405557,63.7172082 C1.7226804,67.3700361 0.552032455,71.2731649 0.0206199023,75.3170878 C-0.148815984,76.6155235 0.744573235,77.8044525 2.01534238,77.9765343 C2.12316522,77.9921781 2.22328643,78 2.33110926,78 C2.42352884,78 2.51594841,77.9921781 2.60836799,77.9843562 C3.53256373,77.7809868 4.27192033,77.0144404 4.41825132,76.0132371 C5.48877805,68.5354994 9.00072188,61.7382671 14.0452903,56.5601685 C20.0525627,50.4199759 28.2008885,46.5559567 37.0038529,46.5403129 L37.0500627,46.5403129 C45.8376239,46.5716005 53.9705465,50.4277978 59.9470123,56.5601685 C64.9915807,61.7382671 68.5035245,68.5354994 69.5740513,76.0132371 C69.7203823,77.0144404 70.4597389,77.7731649 71.376233,77.9843562 C71.376233,77.9843562 71.376233,77.9843562 71.3839346,77.9843562 C71.4763542,78 71.5687738,78 71.6611933,78 C71.7613145,78 71.8691374,77.9921781 71.9769602,77.9765343 C73.255431,77.8044525 74.1488202,76.6155235 73.9793843,75.3170878 L73.9793843,75.3170878 Z M36.9576431,42.566787 C36.9114334,42.566787 36.8652236,42.566787 36.8190138,42.566787 C28.1315738,42.5042118 20.3837328,36.3718412 18.2657842,28.143201 C18.2426793,28.05716 18.2195744,27.9632972 18.1964695,27.8694344 C17.8652994,26.5084236 17.6881619,25.1004813 17.6881619,23.6456077 C17.6881619,22.1907341 17.8652994,20.767148 18.1964695,19.3826715 C18.2195744,19.2888087 18.2426793,19.1949458 18.2657842,19.1089049 C20.3914344,10.6768953 28.2085901,3.97352587 36.9576431,3.97352587 L37.0577643,3.97352587 C45.8068174,3.97352587 53.6239731,10.6768953 55.7573249,19.1089049 C55.7804298,19.2027677 55.8035347,19.2888087 55.8266396,19.3826715 C56.1578097,20.767148 56.3349472,22.198556 56.3349472,23.6456077 C56.3349472,25.1004813 56.1578097,26.5084236 55.8266396,27.8694344 C55.8035347,27.9632972 55.7804298,28.0493381 55.7573249,28.143201 C53.6393763,36.3718412 45.8915353,42.5042118 37.2040953,42.566787 C37.1193774,42.566787 37.0346595,42.566787 36.9576431,42.566787 L36.9576431,42.566787 Z" id="Shape"></path>
                    </g>
                    <g id="4b36f3973b91031a6ebb3a13bf6df0d7" transform="translate(140.194859, 13.460199)" fill="#FFFFFF" fill-rule="nonzero">
                        <path d="M15.4910674,37.2939301 C15.2838983,37.2939301 15.1227668,37.344843 15,37.4339406 C15.1688044,37.344843 15.3529547,37.2939301 15.5447778,37.2939301 L15.4910674,37.2939301 L15.4910674,37.2939301 Z M72.2017876,60 C72.2156442,59.8920228 72.2295008,59.7917582 72.2710706,59.6914936 C72.2295008,59.7377696 72.2156442,59.8303215 72.2017876,60 L72.2017876,60 Z M76,18.1151526 C76,18.1011515 76,18.1011515 76,18.0871505 L76,18.0031442 C76,18.0311463 76,18.0731494 76,18.1151526 L76,18.1151526 Z M72.2172468,18.0980073 C72.2172468,18.1120084 72.2172468,18.1120084 72.2172468,18.1260094 C72.2172468,18.0840063 72.2172468,18.0420031 72.2172468,18 L72.2172468,18.0980073 L72.2172468,18.0980073 Z" id="Shape"></path>
                        <path d="M73.9793843,75.3170878 C73.4479718,71.2731649 72.2773238,67.377858 70.5059487,63.7172082 C70.1593752,63.0054152 69.7896969,62.301444 69.4046154,61.6131167 C69.4046154,61.6131167 69.4046154,61.6052948 69.3969138,61.6052948 C67.7102565,58.7033694 65.6462194,56.0126354 63.2356088,53.6113117 L63.2356088,53.6113117 C62.7118979,53.0872443 62.1727837,52.5788207 61.6182662,52.0860409 C57.6596278,48.5583634 53.0848589,45.9458484 48.2020247,44.3580024 C49.0877123,43.8574007 49.9425933,43.3020457 50.7589663,42.6919374 C51.6908636,41.9957882 52.5842528,41.2135981 53.416029,40.3688327 C57.8136604,35.9025271 60.2319726,29.965704 60.2319726,23.6456077 C60.2319726,17.3255114 57.8059588,11.3886883 53.416029,6.92238267 C49.1031155,2.54211793 43.3885052,0.0860409146 37.2965149,0 C37.1963937,0 37.1039741,0 37.0038529,0 C36.9037317,0 36.8113121,0 36.7111909,0 C30.6192007,0.0860409146 24.9045903,2.54211793 20.5839752,6.92238267 C16.1863438,11.3886883 13.7680316,17.3255114 13.7680316,23.6456077 C13.7680316,29.965704 16.1940454,35.9025271 20.5839752,40.3688327 C21.423453,41.22142 22.3091406,41.9957882 23.241038,42.6919374 C24.0574109,43.3098676 24.9122919,43.8652226 25.7979795,44.3580024 C20.922847,45.9458484 16.348078,48.5661853 12.381738,52.0860409 C11.8272205,52.5788207 11.2881063,53.0872443 10.7643954,53.6113117 C8.35378486,56.0126354 6.28204607,58.7111913 4.59538884,61.6131167 C4.21030728,62.301444 3.84062898,63.0054152 3.49405557,63.7172082 C1.7226804,67.3700361 0.552032455,71.2731649 0.0206199023,75.3170878 C-0.148815984,76.6155235 0.744573235,77.8044525 2.01534238,77.9765343 C2.12316522,77.9921781 2.22328643,78 2.33110926,78 C2.42352884,78 2.51594841,77.9921781 2.60836799,77.9843562 C3.53256373,77.7809868 4.27192033,77.0144404 4.41825132,76.0132371 C5.48877805,68.5354994 9.00072188,61.7382671 14.0452903,56.5601685 C20.0525627,50.4199759 28.2008885,46.5559567 37.0038529,46.5403129 L37.0500627,46.5403129 C45.8376239,46.5716005 53.9705465,50.4277978 59.9470123,56.5601685 C64.9915807,61.7382671 68.5035245,68.5354994 69.5740513,76.0132371 C69.7203823,77.0144404 70.4597389,77.7731649 71.376233,77.9843562 C71.376233,77.9843562 71.376233,77.9843562 71.3839346,77.9843562 C71.4763542,78 71.5687738,78 71.6611933,78 C71.7613145,78 71.8691374,77.9921781 71.9769602,77.9765343 C73.255431,77.8044525 74.1488202,76.6155235 73.9793843,75.3170878 L73.9793843,75.3170878 Z M36.9576431,42.566787 C36.9114334,42.566787 36.8652236,42.566787 36.8190138,42.566787 C28.1315738,42.5042118 20.3837328,36.3718412 18.2657842,28.143201 C18.2426793,28.05716 18.2195744,27.9632972 18.1964695,27.8694344 C17.8652994,26.5084236 17.6881619,25.1004813 17.6881619,23.6456077 C17.6881619,22.1907341 17.8652994,20.767148 18.1964695,19.3826715 C18.2195744,19.2888087 18.2426793,19.1949458 18.2657842,19.1089049 C20.3914344,10.6768953 28.2085901,3.97352587 36.9576431,3.97352587 L37.0577643,3.97352587 C45.8068174,3.97352587 53.6239731,10.6768953 55.7573249,19.1089049 C55.7804298,19.2027677 55.8035347,19.2888087 55.8266396,19.3826715 C56.1578097,20.767148 56.3349472,22.198556 56.3349472,23.6456077 C56.3349472,25.1004813 56.1578097,26.5084236 55.8266396,27.8694344 C55.8035347,27.9632972 55.7804298,28.0493381 55.7573249,28.143201 C53.6393763,36.3718412 45.8915353,42.5042118 37.2040953,42.566787 C37.1193774,42.566787 37.0346595,42.566787 36.9576431,42.566787 L36.9576431,42.566787 Z" id="Shape"></path>
                    </g>
                    <g id="verified-user-shield-check-copy" transform="translate(98.598673, 193.001658)">
                        <g id="Shape" fill-rule="nonzero">
                            <use fill="black" fill-opacity="1" filter="url(#filter-3)" xlink:href="#path-2"></use>
                            <use fill="url(#linearGradient-1)" xlink:href="#path-2"></use>
                        </g>
                        <polygon id="Path-3" fill="#E1E1E1" points="8.74101714 28.8432286 16.5013641 34.6951142 30.59356 13.8867469 28.0662864 11.2759121 15.6825158 30.0022053 9.76912484 25.3487869"></polygon>
                    </g>
                    <g id="verified-user-shield-check-copy" transform="translate(207.686567, 3.146766)">
                        <g id="Shape" fill-rule="nonzero">
                            <use fill="black" fill-opacity="1" filter="url(#filter-6)" xlink:href="#path-5"></use>
                            <use fill="url(#linearGradient-4)" xlink:href="#path-5"></use>
                        </g>
                        <text id="?" font-family="DINAlternate-Bold, DIN Alternate" font-size="24" font-weight="bold" letter-spacing="1.92" fill="#494949" fill-opacity="0.695175918">
                            <tspan x="13.7002065" y="33.4085343">?</tspan>
                        </text>
                    </g>
                    <g id="verified-user-shield-check-copy" transform="translate(313.627695, 194.050580)">
                        <g id="Shape" fill-rule="nonzero">
                            <use fill="black" fill-opacity="1" filter="url(#filter-9)" xlink:href="#path-8"></use>
                            <use fill="url(#linearGradient-7)" xlink:href="#path-8"></use>
                        </g>
                        <polygon id="Path-6" fill="#F6F6F6" points="14.8597291 10.9950541 20.9784411 10.9950541 20.1024813 28.3426112 16.0712291 28.3426112"></polygon>
                        <ellipse id="Oval" fill="#EEEEEE" cx="17.9190851" cy="32.6795004" rx="3.059356" ry="2.60213356"></ellipse>
                    </g>
                </g>
            </g>
        </g>
    </g>
</svg>