<?xml version="1.0" encoding="UTF-8"?>
<svg width="31px" height="34px" viewBox="0 0 31 34" version="1.1" xmlns="http://www.w3.org/2000/svg" xmlns:xlink="http://www.w3.org/1999/xlink">
    <!-- Generator: Sketch 55.2 (78181) - https://sketchapp.com -->
    <title>mastodon-icon</title>
    <desc>Created with Sketch.</desc>
    <g id="Page-1" stroke="none" stroke-width="1" fill="none" fill-rule="evenodd">
        <g id="mastodon-icon" transform="translate(-9.000000, -7.000000)" fill="#000000" fill-rule="nonzero">
            <path d="M39.998831,18.1630121 C39.998831,10.7874071 35.2734122,8.62480689 35.2734122,8.62480689 C30.6370123,6.44703055 18.3227342,6.46979476 13.7308437,8.62480689 C13.7308437,8.62480689 9.00542497,10.7874071 9.00542497,18.1630121 C9.00542497,26.94241 8.51582114,37.8464678 16.8390862,40.1001249 C19.8434734,40.9120484 22.4250208,41.0865741 24.502128,40.9651649 C28.2705938,40.752699 30.3847922,39.5917241 30.3847922,39.5917241 L30.2586821,36.791726 C30.2586821,36.791726 27.565861,37.6567661 24.5392192,37.5581211 C21.5422503,37.4518881 18.3820801,37.224246 17.8924763,33.4605629 C17.8479668,33.1266878 17.8257121,32.7776365 17.8257121,32.405821 C24.1757254,33.9917278 29.5910405,33.0963355 31.0821067,32.9142218 C35.2437392,32.405821 38.8712585,29.7803485 39.3311894,27.3825181 C40.0581769,23.6036589 39.998831,18.1630121 39.998831,18.1630121 Z M34.9623092,28 L31.4923714,28 L31.4923714,19.2891004 C31.4923714,15.4981047 26.7267915,15.3531773 26.7267915,19.8154157 L26.7267915,24.5827644 L23.2791923,24.5827644 L23.2791923,19.8154157 C23.2791923,15.3531773 18.5136124,15.4981047 18.5136124,19.2891004 L18.5136124,28 L15.0362283,28 C15.0362283,18.6865075 14.6490249,16.718546 16.4063325,14.6514234 C18.3349031,12.4470013 22.3484149,12.3020739 24.1355074,15.1167168 L24.9992688,16.6041296 L25.8630301,15.1167168 C27.6575688,12.2868184 31.6785268,12.4622569 33.592205,14.6514234 C35.3569588,16.7338015 34.9623092,18.6941353 34.9623092,28 Z" id="path2"></path>
        </g>
    </g>
</svg>