<?xml version="1.0" encoding="UTF-8"?>
<svg width="44px" height="43px" viewBox="0 0 44 43" version="1.1" xmlns="http://www.w3.org/2000/svg" xmlns:xlink="http://www.w3.org/1999/xlink">
    <!-- Generator: Sketch 55.2 (78181) - https://sketchapp.com -->
    <title>LI</title>
    <desc>Created with Sketch.</desc>
    <g id="Page-1" stroke="none" stroke-width="1" fill="none" fill-rule="evenodd">
        <g id="Group-3" transform="translate(-126.000000, -1161.000000)" fill="#1E2246" fill-rule="nonzero">
            <g id="d6ed7418057a4f121f9423f936767a3e-(1)" transform="translate(126.000000, 1161.000000)">
                <path d="M40.3232653,0 L3.67673469,0 C1.92163265,0 0.5,1.3778957 0.5,3.08051842 L0.5,39.9194816 C0.5,41.6221043 1.92163265,43 3.67673469,43 L40.3232653,43 C42.0783673,43 43.5,41.6177161 43.5,39.9194816 L43.5,3.08051842 C43.5,1.3778957 42.0783673,0 40.3232653,0 Z M13.5360204,35.9964282 L7.0377551,35.9964282 L7.0377551,16.5830187 L13.5360204,16.5830187 L13.5360204,35.9964282 Z M10.2890816,13.9281559 L10.2452041,13.9281559 C8.0644898,13.9281559 6.65602041,12.436167 6.65602041,10.5711807 C6.65602041,8.66670068 8.10836735,7.21859373 10.3329592,7.21859373 C12.5531633,7.21859373 13.9221429,8.66670068 13.9660204,10.5711807 C13.9616327,12.4405552 12.5531633,13.9281559 10.2890816,13.9281559 Z M36.9578571,35.9964282 L30.4639796,35.9964282 L30.4639796,25.609552 C30.4639796,22.9985713 29.525,21.2169609 27.1731633,21.2169609 C25.3741837,21.2169609 24.3079592,22.4193285 23.8428571,23.5778141 C23.6673469,23.9903051 23.6278571,24.5695479 23.6278571,25.1487907 L23.6278571,35.99204 L17.1295918,35.99204 C17.1295918,35.99204 17.2129592,18.3953465 17.1295918,16.5742423 L23.6234694,16.5742423 L23.6234694,19.3256455 C24.4834694,18.0047964 26.0279592,16.1178692 29.4767347,16.1178692 C33.7504082,16.1178692 36.9578571,18.8912134 36.9578571,24.8591693 L36.9578571,35.9964282 L36.9578571,35.9964282 Z M23.5839796,19.4344219 C23.6139796,19.4058505 23.6439796,19.3701362 23.6839796,19.3344219 L23.6839796,19.4344219 L23.5839796,19.4344219 Z" id="LI"></path>
            </g>
        </g>
    </g>
</svg>