<?xml version="1.0" encoding="UTF-8"?>
<svg width="14px" height="13px" viewBox="0 0 14 13" version="1.1" xmlns="http://www.w3.org/2000/svg" xmlns:xlink="http://www.w3.org/1999/xlink">
    <!-- Generator: Sketch 55.2 (78181) - https://sketchapp.com -->
    <title>Tx</title>
    <desc>Created with Sketch.</desc>
    <g id="Page-1" stroke="none" stroke-width="1" fill="none" fill-rule="evenodd">
        <g id="Tx" transform="translate(-2.000000, -3.000000)" fill="#000000" fill-rule="nonzero">
            <rect id="Rectangle" fill-opacity="0" x="0" y="0" width="18" height="18"></rect>
            <path d="M2.32758121,8.63620774 C2.5319641,8.86256737 2.79474209,8.98309652 3.06017441,8.9977952 C3.09998926,9.00073493 3.13980411,9.00073493 3.17696463,8.9977952 L14.8798756,8.99485546 C15.4983329,8.99485546 16,8.43630573 16,7.75428711 C16,7.06932876 15.5009872,6.51371877 14.8798756,6.51371877 L5.7357322,6.52841744 L7.06023947,5.04679079 C7.48227686,4.57937286 7.48227686,3.81798138 7.06023947,3.35056345 C6.63820208,2.88314552 5.95073237,2.88314552 5.52869499,3.35056345 L2.32492689,6.9311612 C2.13381562,7.14282215 2.03029701,7.41033807 2.01171675,7.68961293 L2.00375378,7.69255267 C2.00109946,7.69255267 1.99844513,7.777805 2.00109946,7.82484076 C2.0170254,8.11881431 2.12585265,8.41278785 2.32758121,8.63620774 Z M10.9380147,15.6485756 C11.3599697,16.1171415 12.0473051,16.1171415 12.4719139,15.6485756 L15.6777101,12.0650786 C15.8661303,11.8528978 15.9722825,11.584725 15.9908591,11.3077112 L15.9988205,11.3047642 C15.9988205,11.3047642 16.0014743,11.2163556 15.9988205,11.1750982 L15.9988205,11.1750982 L15.9988205,11.1750982 C15.9828977,10.8804028 15.8740917,10.5886542 15.6724025,10.3646857 C15.4680596,10.1407171 15.2053329,10.0198919 14.9399524,10.0022102 L14.9399524,10.0022102 C14.9001453,9.99926326 14.8603383,9.99926326 14.823185,10.0022102 L3.11990564,10.0051572 C2.50156911,10.0051572 2,10.5591847 2,11.2458251 C2,11.9324656 2.49891531,12.4864931 3.11990564,12.4864931 L12.2649171,12.4717583 L10.9406685,13.9599705 C10.5160597,14.4226424 10.5160597,15.1800098 10.9380147,15.6485756 Z" id="Shape"></path>
        </g>
    </g>
</svg>